<svg xmlns="http://www.w3.org/2000/svg" version="1.1" xmlns:xlink="http://www.w3.org/1999/xlink" xmlns:svgjs="http://svgjs.dev/svgjs" viewBox="0 0 11.055856118284307 3.3915813064353353"><g transform="matrix(0.7380167337808153,0,0,0.7380167337808153,4.316975453388204,0.9024178131410283)"><g transform="matrix(-1,0,0,1,-3.6851315151826687,0)" clip-path="url(#SvgjsClipPath5995)"><g clip-path="url(#SvgjsClipPath59939b2f7531-e4ee-47bd-b668-cb84a564238d)"><path d=" M -1.3043575876681675 0.4517312011806778 C -1.5010711000669856 0.27390218597214605 -1.8011247776459833 0.25003427980108933 -2.0261650358302314 0.40924108250253294 C -2.0854413742330755 0.4512066318142806 -2.1515371143990785 0.498155590106799 -2.2244522563282407 0.5511370961128804 C -2.2454350309841145 0.5658250383719924 -2.2666800903231867 0.5828735427798899 -2.2879251496622595 0.6025448940197717 C -2.34274264845073 0.653952691926663 -2.3978224319223993 0.7192615780430706 -2.4526399307108697 0.8000452604681851 C -2.2483201624992972 0.37252122685475336 -2.0440003942877243 0.19967562062699176 -1.839680626076152 0.15902149473123592 C -1.6652613117491994 0.12335077781625023 -1.490841997422247 0.24216573930513657 -1.3043575876681675 0.4517312011806778 Z" fill="#ffc632" transform="matrix(1,0,0,1,0,0)" fill-rule="nonzero"></path></g><g clip-path="url(#SvgjsClipPath59939b2f7531-e4ee-47bd-b668-cb84a564238d)"><path d=" M -0.3999999999999999 0.534875445754578 C -0.46819401763158996 0.6657555026705917 -0.5550102477702685 0.7483751778780956 -0.6510064418208921 0.7992584064185898 C -0.7470026358715156 0.8498793502758856 -0.851654224467687 0.8690261321493707 -0.9560435283806599 0.8726981177141487 C -1.1753135235345424 0.8805666582101015 -1.4000914970355924 0.7919144352890339 -1.6183123534566817 0.6405761730835431 C -1.8131898730731109 0.5041881378203623 -2.018558780017477 0.4079296590865405 -2.2244522563282407 0.5508748114296818 C -2.15127482971588 0.49815559010679844 -2.0854413742330755 0.45094434713108195 -2.0261650358302314 0.408978797819334 C -1.8011247776459836 0.2497719951178904 -1.5010711000669856 0.2739021859721455 -1.3043575876681675 0.45146891649747883 C -1.2888827913594605 0.4690419902717734 -1.273145710367555 0.487401918095663 -1.2571463446924507 0.5060241306027512 C -1.2440321105325296 0.521498926911458 -1.23065559168941 0.5364491538537685 -1.2175413575294889 0.5503502420632849 C -1.2172790728462903 0.5506125267464833 -1.2172790728462903 0.5506125267464833 -1.2172790728462903 0.5506125267464833 C -1.1876409036448687 0.5915289373254374 -1.158789588493042 0.6292979317060106 -1.1309874120740084 0.6636572252050041 C -0.9838457047996925 0.8469942187607029 -0.7087090721245448 0.8580101754550368 -0.5466171379079188 0.6880497007424575 L -0.3999999999999999 0.534875445754578 Z" fill="#000000" transform="matrix(1,0,0,1,0,0)" fill-rule="nonzero"></path></g><g clip-path="url(#SvgjsClipPath59939b2f7531-e4ee-47bd-b668-cb84a564238d)"><path d=" M -1.3979932195700049 1.6535196195958586 C -1.4045503366499656 1.6540441889622555 -1.6909652107026452 1.6684698465381684 -1.6909652107026452 1.6684698465381684 C -1.3995669276691955 1.5084761897871295 -1.357863663040646 1.3482202483528922 -1.4420570463473406 1.2475029300046974 L -1.4273691040882288 1.262190872263809 C -1.3219306614424617 1.3676293149095757 -1.3096032813321357 1.5339178040573767 -1.3979932195700049 1.6535196195958586 Z" fill="#262626" transform="matrix(1,0,0,1,0,0)" fill-rule="nonzero"></path></g><g clip-path="url(#SvgjsClipPath59939b2f7531-e4ee-47bd-b668-cb84a564238d)"><path d=" M -1.2044271233695678 1.0636413670826017 C -1.3623225026550199 0.9146636670258969 -1.6041489805639668 0.8997134400835864 -1.7796174336237125 1.0277083654844175 L -2.0788842571531148 1.2464537912719034 L -2.0788842571531148 1.246716075955102 C -2.085179089549877 1.2506503462030782 -2.091473921946639 1.2545846164510546 -2.0977687543434014 1.2587811713822294 C -2.099867031808989 1.26035487948142 -2.1019653092745765 1.2619285875806108 -2.1040635867401636 1.2632400109966029 L -3.2851315151826688 2.119861786322657 L -2.0773105490539243 0.9083688346291348 C -1.894760409547821 0.7255564104398327 -1.6065095427127525 0.7024753583183716 -1.397468650203608 0.8543381898902593 C -1.3494705531782965 0.8892220527556496 -1.3040953029849687 0.9356464416817707 -1.2629166077228167 0.9860051008558683 C -1.242196117750141 1.011184430442917 -1.2225247665102592 1.0374128987627593 -1.2044271233695678 1.0636413670826017 Z" fill="#ffc632" transform="matrix(1,0,0,1,0,0)" fill-rule="nonzero"></path></g><g clip-path="url(#SvgjsClipPath59939b2f7531-e4ee-47bd-b668-cb84a564238d)"><path d=" M -1.3979932195700049 1.6535196195958586 C -1.3096032813321357 1.5339178040573767 -1.3219306614424617 1.3676293149095757 -1.4273691040882288 1.2624531569470074 L -1.4420570463473406 1.2477652146878957 L -1.4431061850801343 1.246716075955102 C -1.5453972115275196 1.1258028370006283 -1.8302383774810087 1.0911812588184364 -2.0788842571531148 1.2469783606383003 L -2.0788842571531148 1.246716075955102 L -1.7796174336237125 1.027970650167616 C -1.6041489805639668 0.8997134400835864 -1.3623225026550192 0.9149259517090951 -1.2044271233695678 1.0639036517658003 C -1.1860671955456783 1.0898698354024443 -1.1692809758209792 1.1158360190390881 -1.1538061795122725 1.1407530639429384 C -1.0237129766458533 1.3500562411352814 -1.1527570407794783 1.6293894287416033 -1.3979932195700049 1.6535196195958586 Z" fill="#000000" transform="matrix(1,0,0,1,0,0)" fill-rule="nonzero"></path></g><g clip-path="url(#SvgjsClipPath59939b2f7531-e4ee-47bd-b668-cb84a564238d)"><path d=" M -1.0675145187399901 -0.01880752047729582 C -1.2028534152703774 -0.01880752047729582 -1.312750697530517 0.09108976178284389 -1.312750697530517 0.22642865831323106 C -1.312750697530517 0.361767554843618 -1.2028534152703774 0.47166483710375784 -1.0675145187399901 0.47166483710375784 C -0.9321756222096034 0.47166483710375784 -0.8222783399494635 0.361767554843618 -0.8222783399494635 0.2264286583132308 C -0.8222783399494635 0.09108976178284389 -0.9321756222096034 -0.01880752047729582 -1.0675145187399901 -0.01880752047729582 Z M -1.0407614810537509 0.36963609533957076 C -1.1362331057379773 0.3714720881219596 -1.213869371964711 0.29357353721202767 -1.212033379182322 0.1981019125278011 C -1.210459671083131 0.10761369682434471 -1.1372822444707706 0.03417398552878591 -1.0465317440841164 0.03260027742959526 C -0.9510601193998895 0.03076428464720629 -0.8734238531731564 0.10866283555713835 -0.8749975612723464 0.20413446024136478 C -0.8768335540547354 0.2948849606280196 -0.9502732653502943 0.36832467192357854 -1.0407614810537509 0.36963609533957076 Z" fill="#262626" transform="matrix(1,0,0,1,0,0)" fill-rule="nonzero"></path></g><g clip-path="url(#SvgjsClipPath59939b2f7531-e4ee-47bd-b668-cb84a564238d)"><path d=" M -1.0467940287673145 0.032862562112793696 C -1.1372822444707706 0.03443627021198435 -1.21072195576633 0.10787598150754316 -1.2122956638655205 0.19836419721099968 C -1.2141316566479095 0.2938358218952261 -1.1362331057379773 0.37147208812195986 -1.041023765736949 0.3698983800227692 C -0.9505355500334929 0.368586956606777 -0.8770958387379335 0.2951472453112183 -0.8755221306387435 0.20439674492456333 C -0.8736861378563545 0.10866283555713835 -0.9513224040830881 0.03102656933040486 -1.0467940287673145 0.032862562112793696 Z M -0.9282413519616268 0.18210254685269717 C -0.9311264834768096 0.22774008172922303 -0.9681086238077876 0.2647222220602008 -1.014008443367512 0.26786963825858184 C -1.0693505115223791 0.2712793391401616 -1.1149880463989055 0.22564180426363561 -1.111578345517326 0.17029973610876803 C -1.1086932140021433 0.12466220123224231 -1.0717110736711652 0.08741777621806596 -1.0258112541114413 0.08453264470288334 C -0.9704691859565733 0.0808606591381054 -0.924831651080047 0.12649819401463128 -0.9282413519616268 0.18210254685269717 Z" fill="#000000" transform="matrix(1,0,0,1,0,0)" fill-rule="nonzero"></path></g><g clip-path="url(#SvgjsClipPath59939b2f7531-e4ee-47bd-b668-cb84a564238d)"><path d=" M -0.9282413519616268 0.18210254685269717 C -0.9311264834768096 0.22774008172922303 -0.9681086238077876 0.2647222220602008 -1.014008443367512 0.26786963825858184 C -1.0693505115223791 0.2712793391401616 -1.1149880463989055 0.22564180426363561 -1.111578345517326 0.17029973610876803 C -1.1086932140021433 0.12466220123224231 -1.0717110736711652 0.08741777621806596 -1.0258112541114413 0.08453264470288334 C -0.9704691859565733 0.0808606591381054 -0.924831651080047 0.12649819401463128 -0.9282413519616268 0.18210254685269717 Z" fill="#ffc632" transform="matrix(1,0,0,1,0,0)" fill-rule="nonzero"></path></g><g clip-path="url(#SvgjsClipPath59939b2f7531-e4ee-47bd-b668-cb84a564238d)"><path d=" M -0.3999999999999999 0.534875445754578 L -0.5463548532247207 0.6883119854256564 C -0.7084467874413467 0.8582724601382352 -0.9835834201164944 0.8472565034439016 -1.1307251273908103 0.6639195098882031 C -1.1585273038098434 0.6292979317060108 -1.1873786189616697 0.5915289373254377 -1.2170167881630922 0.550874811429682 C -0.9707314706397714 0.8068646622313443 -0.6599241210496385 0.8058155234985506 -0.3999999999999999 0.534875445754578 Z" fill="#262626" transform="matrix(1,0,0,1,0,0)" fill-rule="nonzero"></path></g></g><g><path d=" M 0.04125 0.75075 Q 0.039 0.7410000000000001 0.035250000000000004 0.7170000000000001 Q 0.0315 0.6930000000000001 0.027 0.663375 Q 0.0225 0.63375 0.01875 0.6052500000000001 Q 0.015 0.57675 0.0135 0.5587500000000001 Q 0.081 0.5415 0.16425 0.5261250000000001 Q 0.2475 0.51075 0.33675 0.500625 Q 0.426 0.49050000000000005 0.51075 0.49050000000000005 Q 0.62025 0.49050000000000005 0.70725 0.49387500000000006 Q 0.79425 0.4972500000000001 0.88575 0.50475 Q 0.88575 0.513 0.8805000000000001 0.543 Q 0.87525 0.5730000000000001 0.86775 0.6108750000000001 Q 0.8602500000000001 0.64875 0.8535 0.679875 Q 0.84675 0.7110000000000001 0.84375 0.72075 Q 0.8025 0.7125 0.757875 0.7053750000000001 Q 0.71325 0.69825 0.662625 0.6937500000000001 Q 0.612 0.68925 0.5535 0.68625 Q 0.495 0.68325 0.426 0.68325 Q 0.37425 0.68325 0.31575000000000003 0.69075 Q 0.25725 0.69825 0.202125 0.709125 Q 0.147 0.72 0.10425 0.7312500000000001 Q 0.0615 0.7425 0.04125 0.75075 M 0.8542500000000001 1.0965 Q 0.84225 1.0965 0.8145 1.09425 Q 0.7867500000000001 1.092 0.754875 1.089 Q 0.723 1.086 0.697125 1.083 Q 0.67125 1.08 0.6615 1.07925 Q 0.6637500000000001 1.05975 0.666375 1.01025 Q 0.669 0.96075 0.672 0.8951250000000001 Q 0.675 0.8295 0.67725 0.7582500000000001 Q 0.6795 0.687 0.6813750000000001 0.62175 Q 0.68325 0.5565 0.68325 0.50925 Q 0.69825 0.5085000000000001 0.7252500000000001 0.508125 Q 0.75225 0.50775 0.783375 0.507 Q 0.8145 0.5062500000000001 0.84225 0.5055000000000001 Q 0.87 0.50475 0.88575 0.50475 Q 0.88575 0.5475 0.88425 0.6180000000000001 Q 0.88275 0.6885000000000001 0.8775000000000001 0.77175 Q 0.87375 0.8385 0.87 0.90375 Q 0.86625 0.9690000000000001 0.8625 1.02 Q 0.85875 1.071 0.8542500000000001 1.0965 M 0.80325 0.41400000000000003 Q 0.75 0.41400000000000003 0.71475 0.374625 Q 0.6795 0.33525000000000005 0.6795 0.2805000000000001 Q 0.6795 0.22425000000000006 0.717 0.18637500000000007 Q 0.7545000000000001 0.14850000000000008 0.8055 0.14850000000000008 Q 0.861 0.14850000000000008 0.895875 0.18562500000000004 Q 0.93075 0.22275 0.93075 0.29175000000000006 Q 0.93075 0.35475 0.891375 0.384375 Q 0.852 0.41400000000000003 0.80325 0.41400000000000003 M 0.22875 1.0845 Q 0.222 1.05075 0.210375 0.9832500000000001 Q 0.19875 0.9157500000000001 0.18525 0.83175 Q 0.17175 0.74775 0.15975 0.662625 Q 0.14775 0.5775 0.139875 0.506625 Q 0.132 0.4357500000000001 0.132 0.39675000000000005 Q 0.132 0.29325 0.1635 0.21037499999999998 Q 0.195 0.12750000000000006 0.259875 0.0787500000000001 Q 0.32475 0.030000000000000027 0.42375 0.030000000000000027 Q 0.47925 0.030000000000000027 0.51975 0.042750000000000066 Q 0.56025 0.055500000000000105 0.5876250000000001 0.07387500000000014 Q 0.615 0.09225000000000005 0.629625 0.108375 Q 0.64425 0.12450000000000006 0.648 0.132 Q 0.64275 0.14175000000000004 0.631125 0.16875000000000007 Q 0.6195 0.19574999999999998 0.606 0.22762500000000008 Q 0.5925 0.25950000000000006 0.58125 0.28575000000000006 Q 0.5700000000000001 0.31200000000000006 0.56625 0.31875 Q 0.56325 0.31425000000000003 0.55425 0.30300000000000005 Q 0.54525 0.29175000000000006 0.5295 0.278625 Q 0.51375 0.26550000000000007 0.492 0.25612500000000005 Q 0.47025 0.24675000000000002 0.44325000000000003 0.24675000000000002 Q 0.41250000000000003 0.24675000000000002 0.39487500000000003 0.26550000000000007 Q 0.37725000000000003 0.28425 0.36975 0.31425000000000003 Q 0.36225 0.34425000000000006 0.36225 0.37950000000000006 Q 0.36225 0.42300000000000004 0.36975 0.497625 Q 0.37725000000000003 0.57225 0.3885 0.66 Q 0.39975 0.74775 0.412125 0.83175 Q 0.4245 0.9157500000000001 0.435 0.979125 Q 0.4455 1.0425 0.45 1.06725 Q 0.435 1.06875 0.4035 1.07175 Q 0.372 1.07475 0.336 1.077375 Q 0.3 1.08 0.27037500000000003 1.0822500000000002 Q 0.24075 1.0845 0.22875 1.0845 M 1.6582302246093752 0.9870000000000001 Q 1.643980224609375 1.01475 1.613605224609375 1.045875 Q 1.583230224609375 1.077 1.534855224609375 1.0991250000000001 Q 1.4864802246093751 1.12125 1.4174802246093752 1.12125 Q 1.326730224609375 1.12125 1.269355224609375 1.083 Q 1.2119802246093752 1.04475 1.184605224609375 0.9810000000000001 Q 1.157230224609375 0.91725 1.157230224609375 0.8415 Q 1.157230224609375 0.80025 1.1583552246093751 0.753375 Q 1.1594802246093752 0.7065 1.160980224609375 0.660375 Q 1.162480224609375 0.61425 1.1643552246093751 0.572625 Q 1.1662302246093752 0.531 1.168105224609375 0.49950000000000006 Q 1.1699802246093751 0.4680000000000001 1.1707302246093751 0.45075 Q 1.1114802246093751 0.45675 1.061230224609375 0.46387500000000004 Q 1.010980224609375 0.4710000000000001 0.9914802246093751 0.47550000000000003 Q 0.9839802246093751 0.4335 0.980230224609375 0.39 Q 0.9764802246093751 0.34650000000000003 0.974605224609375 0.31425000000000003 Q 0.9727302246093751 0.28200000000000003 0.9727302246093751 0.2745000000000001 Q 1.016230224609375 0.26850000000000007 1.0657302246093752 0.263625 Q 1.115230224609375 0.25875000000000004 1.1699802246093751 0.25650000000000006 Q 1.169230224609375 0.23850000000000005 1.168480224609375 0.20025000000000004 Q 1.167730224609375 0.16200000000000003 1.1662302246093752 0.13124999999999998 Q 1.1654802246093752 0.10350000000000004 1.163230224609375 0.07537499999999997 Q 1.160980224609375 0.047250000000000014 1.1594802246093752 0.030000000000000027 L 1.3814802246093751 0.010499999999999954 Q 1.3814802246093751 0.019500000000000073 1.3818552246093752 0.05249999999999999 Q 1.3822302246093752 0.08550000000000002 1.3822302246093752 0.132 Q 1.3822302246093752 0.15525 1.382980224609375 0.18562500000000004 Q 1.383730224609375 0.21600000000000008 1.384480224609375 0.24525000000000008 Q 1.409230224609375 0.24375000000000002 1.442230224609375 0.24225000000000008 Q 1.4752302246093751 0.24075000000000002 1.4947302246093752 0.24 Q 1.526230224609375 0.23850000000000005 1.5517302246093752 0.23812500000000003 Q 1.5772302246093752 0.23775000000000002 1.594105224609375 0.23775000000000002 Q 1.6109802246093752 0.23775000000000002 1.616980224609375 0.23850000000000005 Q 1.6214802246093751 0.27375000000000005 1.6229802246093752 0.328125 Q 1.6244802246093752 0.38250000000000006 1.6244802246093752 0.4245 Q 1.616980224609375 0.42375000000000007 1.5757302246093752 0.424875 Q 1.534480224609375 0.42600000000000005 1.4947302246093752 0.42825 Q 1.466980224609375 0.42900000000000005 1.433230224609375 0.43125 Q 1.3994802246093752 0.4335 1.379980224609375 0.4357500000000001 Q 1.379230224609375 0.4515 1.378105224609375 0.47887500000000005 Q 1.3769802246093752 0.5062500000000001 1.3758552246093751 0.540375 Q 1.374730224609375 0.5745 1.373605224609375 0.6108750000000001 Q 1.372480224609375 0.6472500000000001 1.371730224609375 0.681 Q 1.370980224609375 0.71475 1.370980224609375 0.7410000000000001 Q 1.370980224609375 0.7905 1.3758552246093751 0.829875 Q 1.3807302246093751 0.8692500000000001 1.397605224609375 0.8921250000000001 Q 1.414480224609375 0.915 1.449730224609375 0.915 Q 1.472980224609375 0.915 1.489480224609375 0.9015000000000001 Q 1.5059802246093752 0.888 1.5168552246093752 0.8696250000000001 Q 1.5277302246093751 0.8512500000000001 1.535980224609375 0.8370000000000001 Q 1.5457302246093751 0.8505 1.5633552246093751 0.872625 Q 1.580980224609375 0.89475 1.6008552246093752 0.9187500000000001 Q 1.620730224609375 0.94275 1.636855224609375 0.9615 Q 1.652980224609375 0.9802500000000001 1.6582302246093752 0.9870000000000001 M 2.24771484375 1.0905 Q 2.2454648437499998 1.0642500000000001 2.24321484375 1.002375 Q 2.24096484375 0.9405000000000001 2.23796484375 0.856125 Q 2.23496484375 0.77175 2.2319648437499997 0.674625 Q 2.22896484375 0.5775 2.22671484375 0.4796250000000001 Q 2.22446484375 0.38175000000000003 2.22221484375 0.29400000000000004 Q 2.2199648437499997 0.20625000000000004 2.21846484375 0.13875000000000004 Q 2.21696484375 0.07125000000000004 2.21696484375 0.03750000000000009 Q 2.22746484375 0.035250000000000004 2.28933984375 0.024375000000000036 Q 2.35121484375 0.013500000000000068 2.44121484375 0 Q 2.44121484375 0.047250000000000014 2.44233984375 0.129 Q 2.44346484375 0.21075 2.44646484375 0.30862500000000004 Q 2.44946484375 0.4065000000000001 2.4547148437499997 0.5032500000000001 Q 2.47121484375 0.486 2.49596484375 0.46725000000000005 Q 2.52071484375 0.4485 2.55221484375 0.43237500000000006 Q 2.58371484375 0.41625 2.6200898437499998 0.40612500000000007 Q 2.65646484375 0.396 2.69546484375 0.396 Q 2.7832148437499997 0.396 2.84883984375 0.4365 Q 2.91446484375 0.4770000000000001 2.95083984375 0.556875 Q 2.98721484375 0.63675 2.98721484375 0.75375 Q 2.98721484375 0.906 2.90658984375 0.9948750000000001 Q 2.82596484375 1.08375 2.6887148437499997 1.08375 Q 2.63471484375 1.08375 2.59233984375 1.069125 Q 2.5499648437499998 1.0545 2.52183984375 1.0346250000000001 Q 2.49371484375 1.01475 2.48171484375 0.99975 Q 2.48246484375 1.014 2.48358984375 1.03575 Q 2.48471484375 1.0575 2.48583984375 1.0755000000000001 Q 2.48696484375 1.0935000000000001 2.48696484375 1.0995000000000001 Q 2.42246484375 1.10025 2.35871484375 1.098 Q 2.29496484375 1.09575 2.24771484375 1.0905 M 2.47496484375 0.83175 Q 2.48696484375 0.83925 2.50946484375 0.84975 Q 2.53196484375 0.8602500000000001 2.5619648437499998 0.868125 Q 2.59196484375 0.8760000000000001 2.62421484375 0.8760000000000001 Q 2.7022148437499998 0.8760000000000001 2.7374648437499998 0.8403750000000001 Q 2.7727148437499998 0.8047500000000001 2.7727148437499998 0.73725 Q 2.7727148437499998 0.69675 2.7599648437499997 0.662625 Q 2.74721484375 0.6285000000000001 2.72021484375 0.60825 Q 2.69321484375 0.5880000000000001 2.64971484375 0.5880000000000001 Q 2.60171484375 0.5880000000000001 2.56571484375 0.6045 Q 2.52971484375 0.621 2.50533984375 0.64425 Q 2.48096484375 0.6675 2.46671484375 0.68625 Q 2.46671484375 0.69225 2.4674648437499997 0.706875 Q 2.4682148437499998 0.7215 2.46933984375 0.7402500000000001 Q 2.47046484375 0.7590000000000001 2.47158984375 0.77775 Q 2.47271484375 0.7965 2.47346484375 0.8107500000000001 Q 2.47421484375 0.8250000000000001 2.47496484375 0.83175 M 3.60517822265625 0.35175 Q 3.62392822265625 0.3450000000000001 3.6588032226562497 0.34162500000000007 Q 3.69367822265625 0.33825000000000005 3.72667822265625 0.33825000000000005 Q 3.7544282226562498 0.33825000000000005 3.78817822265625 0.3405 Q 3.8219282226562497 0.34275 3.84292822265625 0.34575 Q 3.85267822265625 0.4065000000000001 3.85792822265625 0.468375 Q 3.86317822265625 0.53025 3.86317822265625 0.59025 Q 3.86317822265625 0.7005000000000001 3.84405322265625 0.798 Q 3.8249282226562498 0.8955000000000001 3.78142822265625 0.96975 Q 3.73792822265625 1.044 3.66517822265625 1.086375 Q 3.59242822265625 1.1287500000000001 3.48592822265625 1.1287500000000001 Q 3.37267822265625 1.1287500000000001 3.29917822265625 1.084125 Q 3.2256782226562497 1.0395 3.18442822265625 0.9596250000000001 Q 3.1431782226562497 0.87975 3.12705322265625 0.772875 Q 3.11092822265625 0.666 3.11092822265625 0.54225 Q 3.11092822265625 0.48750000000000004 3.11355322265625 0.430875 Q 3.11617822265625 0.3742500000000001 3.1206782226562497 0.31800000000000006 Q 3.14017822265625 0.3165 3.17205322265625 0.31537500000000007 Q 3.2039282226562498 0.31425000000000003 3.23017822265625 0.31500000000000006 Q 3.26767822265625 0.31500000000000006 3.30555322265625 0.319125 Q 3.3434282226562497 0.32325000000000004 3.36517822265625 0.33000000000000007 Q 3.35992822265625 0.381 3.3561782226562498 0.439875 Q 3.35242822265625 0.49875 3.35242822265625 0.558 Q 3.35242822265625 0.657 3.36555322265625 0.7365 Q 3.3786782226562497 0.8160000000000001 3.40942822265625 0.8625 Q 3.44017822265625 0.909 3.49267822265625 0.909 Q 3.5421782226562497 0.909 3.57180322265625 0.867 Q 3.6014282226562497 0.8250000000000001 3.61455322265625 0.754125 Q 3.62767822265625 0.68325 3.62767822265625 0.5955 Q 3.62767822265625 0.5295000000000001 3.62130322265625 0.465375 Q 3.61492822265625 0.40125 3.60517822265625 0.35175 M 4.529162109375 1.083 Q 4.527662109375 1.0725 4.526912109375 1.053 Q 4.526162109375 1.0335 4.525787109375 1.012875 Q 4.525412109375 0.9922500000000001 4.525412109375 0.9795 Q 4.516412109375 0.9922500000000001 4.497287109375 1.009875 Q 4.478162109375 1.0275 4.448162109375 1.04475 Q 4.418162109375 1.062 4.375412109375 1.073625 Q 4.332662109375 1.08525 4.275662109375 1.08525 Q 4.181162109375 1.08525 4.112912109375 1.0395 Q 4.0446621093749995 0.99375 4.007912109375 0.914625 Q 3.971162109375 0.8355 3.971162109375 0.7365 Q 3.971162109375 0.639 4.008287109375 0.554625 Q 4.0454121093749995 0.47025000000000006 4.119662109375 0.4181250000000001 Q 4.193912109375 0.366 4.306412109375 0.366 Q 4.362662109375 0.366 4.408787109375 0.37875000000000003 Q 4.454912109375 0.39150000000000007 4.487162109374999 0.410625 Q 4.519412109375 0.4297500000000001 4.532912109375 0.44925000000000004 Q 4.535162109374999 0.40800000000000003 4.538912109375 0.354375 Q 4.542662109375 0.3007500000000001 4.547537109375 0.24412500000000004 Q 4.552412109375 0.1875 4.556912109375 0.13650000000000007 Q 4.5614121093749995 0.08550000000000002 4.564787109375 0.049125000000000085 Q 4.568162109375 0.012750000000000039 4.569662109375 0.0007500000000000284 Q 4.613162109375 0.0007500000000000284 4.667537109375 0.005624999999999991 Q 4.721912109374999 0.010499999999999954 4.763912109375 0.021749999999999936 Q 4.751162109375 0.1935 4.743662109375 0.36487500000000006 Q 4.736162109375 0.53625 4.733537109375 0.715125 Q 4.730912109375 0.894 4.730912109375 1.08975 Q 4.713662109375 1.08975 4.674287109375 1.089 Q 4.634912109375 1.08825 4.593662109375 1.08675 Q 4.552412109375 1.08525 4.529162109375 1.083 M 4.337912109375 0.867 Q 4.370912109375 0.867 4.398662109375 0.8595 Q 4.426412109375 0.8520000000000001 4.449662109375 0.838875 Q 4.472912109375 0.82575 4.4905371093749995 0.8103750000000001 Q 4.508162109375 0.795 4.520162109375 0.77925 Q 4.520162109375 0.7642500000000001 4.520162109375 0.742125 Q 4.520162109375 0.72 4.520537109375 0.6975 Q 4.520912109375 0.675 4.521287109375 0.65475 Q 4.521662109375 0.6345000000000001 4.522412109375 0.6232500000000001 Q 4.505912109375 0.6075 4.476662109375 0.5925 Q 4.447412109375 0.5775 4.412537109375 0.568125 Q 4.377662109375 0.5587500000000001 4.341662109375 0.5587500000000001 Q 4.268162109375 0.5587500000000001 4.227287109375 0.602625 Q 4.1864121093749995 0.6465000000000001 4.1864121093749995 0.71625 Q 4.1864121093749995 0.7897500000000001 4.225787109375 0.8283750000000001 Q 4.265162109375 0.867 4.337912109375 0.867 M 5.424621826171875 1.083 Q 5.423121826171875 1.0725 5.422371826171875 1.053 Q 5.421621826171875 1.0335 5.421246826171875 1.012875 Q 5.420871826171875 0.9922500000000001 5.420871826171875 0.9795 Q 5.411871826171875 0.9922500000000001 5.392746826171875 1.009875 Q 5.373621826171875 1.0275 5.343621826171875 1.04475 Q 5.313621826171875 1.062 5.2708718261718746 1.073625 Q 5.228121826171875 1.08525 5.171121826171875 1.08525 Q 5.076621826171875 1.08525 5.008371826171875 1.0395 Q 4.9401218261718745 0.99375 4.903371826171875 0.914625 Q 4.866621826171875 0.8355 4.866621826171875 0.7365 Q 4.866621826171875 0.639 4.903746826171875 0.554625 Q 4.9408718261718745 0.47025000000000006 5.015121826171875 0.4181250000000001 Q 5.089371826171875 0.366 5.201871826171875 0.366 Q 5.258121826171875 0.366 5.304246826171875 0.37875000000000003 Q 5.350371826171875 0.39150000000000007 5.382621826171874 0.410625 Q 5.414871826171875 0.4297500000000001 5.428371826171875 0.44925000000000004 Q 5.430621826171874 0.40800000000000003 5.4343718261718745 0.354375 Q 5.438121826171875 0.3007500000000001 5.442996826171875 0.24412500000000004 Q 5.447871826171875 0.1875 5.452371826171875 0.13650000000000007 Q 5.4568718261718745 0.08550000000000002 5.460246826171875 0.049125000000000085 Q 5.463621826171875 0.012750000000000039 5.465121826171875 0.0007500000000000284 Q 5.508621826171875 0.0007500000000000284 5.562996826171875 0.005624999999999991 Q 5.617371826171874 0.010499999999999954 5.659371826171875 0.021749999999999936 Q 5.646621826171875 0.1935 5.639121826171875 0.36487500000000006 Q 5.631621826171875 0.53625 5.628996826171875 0.715125 Q 5.626371826171875 0.894 5.626371826171875 1.08975 Q 5.609121826171875 1.08975 5.569746826171875 1.089 Q 5.530371826171875 1.08825 5.489121826171875 1.08675 Q 5.447871826171875 1.08525 5.424621826171875 1.083 M 5.233371826171875 0.867 Q 5.266371826171875 0.867 5.2941218261718745 0.8595 Q 5.321871826171875 0.8520000000000001 5.345121826171875 0.838875 Q 5.368371826171875 0.82575 5.3859968261718745 0.8103750000000001 Q 5.403621826171875 0.795 5.415621826171875 0.77925 Q 5.415621826171875 0.7642500000000001 5.415621826171875 0.742125 Q 5.415621826171875 0.72 5.415996826171875 0.6975 Q 5.416371826171875 0.675 5.416746826171875 0.65475 Q 5.417121826171875 0.6345000000000001 5.417871826171875 0.6232500000000001 Q 5.401371826171875 0.6075 5.372121826171875 0.5925 Q 5.342871826171875 0.5775 5.307996826171875 0.568125 Q 5.273121826171875 0.5587500000000001 5.237121826171875 0.5587500000000001 Q 5.163621826171875 0.5587500000000001 5.122746826171875 0.602625 Q 5.0818718261718745 0.6465000000000001 5.0818718261718745 0.71625 Q 5.0818718261718745 0.7897500000000001 5.121246826171875 0.8283750000000001 Q 5.160621826171875 0.867 5.233371826171875 0.867 M 6.089036865234375 1.4805000000000001 Q 5.974286865234375 1.4805000000000001 5.883536865234375 1.4460000000000002 Q 5.792786865234374 1.4115 5.734286865234375 1.3725 Q 5.743286865234375 1.34775 5.762411865234375 1.309125 Q 5.781536865234375 1.2705 5.801786865234375 1.2341250000000001 Q 5.822036865234375 1.19775 5.834786865234375 1.17975 Q 5.861036865234375 1.197 5.903411865234375 1.218 Q 5.945786865234375 1.239 5.996036865234375 1.25475 Q 6.046286865234375 1.2705 6.096536865234375 1.2705 Q 6.151286865234375 1.2705 6.188411865234375 1.242 Q 6.225536865234375 1.2135 6.248786865234375 1.16625 Q 6.272036865234375 1.119 6.282911865234375 1.062 Q 6.293786865234375 1.0050000000000001 6.294536865234375 0.94725 Q 6.278036865234375 0.97575 6.248786865234375 1.000875 Q 6.2195368652343745 1.026 6.180911865234375 1.041375 Q 6.142286865234375 1.05675 6.095036865234375 1.05675 Q 5.980286865234374 1.05675 5.916161865234375 0.994125 Q 5.852036865234375 0.9315 5.826911865234375 0.82425 Q 5.801786865234375 0.7170000000000001 5.801786865234375 0.58425 Q 5.801786865234375 0.5325000000000001 5.804036865234375 0.47625000000000006 Q 5.806286865234375 0.42000000000000004 5.809286865234375 0.35925000000000007 Q 5.822036865234375 0.35550000000000004 5.847536865234375 0.354375 Q 5.873036865234375 0.35325000000000006 5.903036865234375 0.35325000000000006 Q 5.944286865234375 0.35325000000000006 5.9840368652343745 0.35550000000000004 Q 6.023786865234375 0.35775 6.038036865234375 0.36075 Q 6.035786865234375 0.37350000000000005 6.0312868652343745 0.40725 Q 6.026786865234374 0.44100000000000006 6.023411865234375 0.48750000000000004 Q 6.020036865234375 0.534 6.020036865234375 0.58275 Q 6.020036865234375 0.6300000000000001 6.024536865234375 0.6761250000000001 Q 6.029036865234374 0.7222500000000001 6.040661865234375 0.75975 Q 6.052286865234374 0.79725 6.074036865234374 0.81975 Q 6.095786865234375 0.84225 6.129536865234375 0.84225 Q 6.181286865234375 0.84225 6.213536865234375 0.8047500000000001 Q 6.245786865234375 0.76725 6.261911865234374 0.6997500000000001 Q 6.278036865234375 0.63225 6.281036865234375 0.543 Q 6.281786865234375 0.5145000000000001 6.282536865234375 0.486375 Q 6.283286865234375 0.45825000000000005 6.283286865234375 0.4335 Q 6.283286865234375 0.40875000000000006 6.282911865234375 0.39112500000000006 Q 6.282536865234375 0.37350000000000005 6.281786865234375 0.36750000000000005 Q 6.299786865234375 0.366 6.317036865234375 0.36487500000000006 Q 6.3342868652343745 0.36375 6.351536865234375 0.36375 Q 6.420536865234375 0.36375 6.488036865234375 0.37875000000000003 Q 6.491786865234375 0.4635 6.491786865234375 0.57225 Q 6.491786865234375 0.6412500000000001 6.490286865234375 0.719625 Q 6.488786865234375 0.798 6.485411865234375 0.87975 Q 6.482036865234375 0.9615 6.4775368652343746 1.04325 Q 6.470786865234375 1.1715 6.426911865234375 1.2701250000000002 Q 6.3830368652343745 1.3687500000000001 6.299036865234375 1.424625 Q 6.215036865234374 1.4805000000000001 6.089036865234375 1.4805000000000001" fill="#262626" fill-rule="nonzero"></path></g><g><path d=" M 0.02606400053309271 1.8456270606210528 L 0.18356503232592436 1.8456270606210528 L 0.18356503232592436 1.87541448980173 L 0.058830172631837825 1.87541448980173 L 0.058830172631837825 1.9554682057248005 L 0.1671819462765518 1.9554682057248005 L 0.1671819462765518 1.985255634905478 L 0.058830172631837825 1.985255634905478 L 0.058830172631837825 2.071266836664684 L 0.18579908951447516 2.071266836664684 L 0.18579908951447516 2.1010542658453613 L 0.02606400053309271 2.1010542658453613 L 0.02606400053309271 1.8456270606210528 M 0.22265994227732683 1.8318503746249895 L 0.25319205718752114 1.8318503746249895 L 0.25319205718752114 2.1010542658453613 L 0.22265994227732683 2.1010542658453613 L 0.22265994227732683 1.8318503746249895 M 0.30625346072815474 2.0811339225807832 Q 0.28782248892261064 2.0567454649391035 0.28782248892261064 2.0031280924138843 Q 0.28782248892261064 1.9506277484829404 0.30606728929577554 1.925680776544123 Q 0.32431208966894043 1.900733804605306 0.36154637614478713 1.900733804605306 Q 0.39431254824353223 1.900733804605306 0.41013711999576713 1.9225158621936762 Q 0.42596169174800197 1.9442979197820465 0.42596169174800197 1.9927024922006473 L 0.42596169174800197 2.0120643211680878 L 0.31984397529183883 2.0120643211680878 Q 0.3202163181565973 2.0463198647258665 0.3304557469374551 2.062330607910481 Q 0.340695175718313 2.0783413510950948 0.36266340473906256 2.0783413510950948 Q 0.3775571193294012 2.0783413510950948 0.38667951951598367 2.0664263794228237 Q 0.3958019197025661 2.0545114077505526 0.3958019197025661 2.034404893053596 L 0.42596169174800197 2.034404893053596 Q 0.42596169174800197 2.067171065152341 0.4082754056719748 2.0863467226874017 Q 0.3905891195959476 2.105522380222463 0.36191871900954564 2.105522380222463 Q 0.3246844325336989 2.105522380222463 0.30625346072815474 2.0811339225807832 M 0.3939402053787738 1.9848832920407196 Q 0.3939402053787738 1.9569575771838343 0.3857486623540875 1.9424362054582542 Q 0.3775571193294012 1.927914833732674 0.36154637614478713 1.927914833732674 Q 0.3418122043125884 1.927914833732674 0.331945118396489 1.9418776911611164 Q 0.32207803248038963 1.955840548589559 0.3202163181565973 1.9848832920407196 L 0.3939402053787738 1.9848832920407196 M 0.4460658429404466 1.9052019189824074 L 0.4795767007687086 1.9052019189824074 L 0.5060130441665598 2.0046174638729184 L 0.5194173872978647 2.0541390648857942 L 0.5209067587568985 2.0541390648857942 L 0.5343111018882033 2.0035004352786427 L 0.5607474452860545 1.9052019189824074 L 0.5916519030610072 1.9052019189824074 L 0.5354281304824787 2.1010542658453613 L 0.5022896155189751 2.1010542658453613 L 0.4460658429404466 1.9052019189824074 M 0.6236633899880667 2.093607408550192 Q 0.6080249896682111 2.081692436877921 0.6080249896682111 2.0504156362382098 Q 0.6080249896682111 2.0128090068976046 0.6335304759041661 1.998846149469162 Q 0.6590359621401211 1.9848832920407196 0.7070681916939634 1.9848832920407196 L 0.7070681916939634 1.9595639772371438 Q 0.7070681916939634 1.9442979197820465 0.700366020128311 1.9361063767573603 Q 0.6936638485626585 1.927914833732674 0.6761637339190105 1.927914833732674 Q 0.6601529907343965 1.927914833732674 0.6530784763039856 1.936851062486877 Q 0.6460039618735748 1.9457872912410803 0.6460039618735748 1.9588192915076268 L 0.6460039618735748 1.9632874058847283 L 0.6158441898281389 1.9632874058847283 Q 0.6154718469633804 1.9610533486961776 0.6154718469633804 1.955095862860042 Q 0.6154718469633804 1.9290318623269493 0.6325996187422699 1.9148828334661276 Q 0.6497273905211594 1.900733804605306 0.6783977911075614 1.900733804605306 Q 0.7078128774234803 1.900733804605306 0.7227065920138189 1.9148828334661276 Q 0.7376003066041577 1.9290318623269493 0.7376003066041577 1.9554682057248005 L 0.7376003066041577 2.0653093508285485 Q 0.7376003066041577 2.071639179529442 0.7405790495222254 2.0749902653122687 Q 0.7435577924402932 2.0783413510950948 0.7480259068173948 2.0783413510950948 L 0.7599408784896657 2.0783413510950948 L 0.7599408784896657 2.099564894386327 Q 0.7517493354649795 2.104033008763429 0.7398343637927085 2.104033008763429 Q 0.7279193921204375 2.104033008763429 0.7199140205281305 2.097517008630156 Q 0.7119086489358234 2.0910010084968826 0.7089299060177557 2.079830722554129 L 0.7070681916939634 2.079830722554129 Q 0.699621334398794 2.092118037091158 0.6871478484293854 2.0988202086568104 Q 0.6746743624599767 2.105522380222463 0.6594083050048796 2.105522380222463 Q 0.6393017903079223 2.105522380222463 0.6236633899880667 2.093607408550192 M 0.6858446484027307 2.072756208123718 Q 0.6951532200216924 2.067171065152341 0.7011107058578279 2.056186950641966 Q 0.7070681916939634 2.0452028361315913 0.7070681916939634 2.029936778676494 L 0.7070681916939634 2.0120643211680878 Q 0.6735573338657013 2.0120643211680878 0.6568019049515703 2.0196973498956363 Q 0.6400464760374392 2.027330378623185 0.6400464760374392 2.0485539219144173 Q 0.6400464760374392 2.0645646650990312 0.6465624761707124 2.071453008097063 Q 0.6530784763039856 2.0783413510950948 0.6664828194352904 2.0783413510950948 Q 0.676536076783769 2.0783413510950948 0.6858446484027307 2.072756208123718 M 0.795683430001966 2.0919318656587786 Q 0.7874918869772797 2.0790860368246116 0.7874918869772797 2.0597242078571716 L 0.7874918869772797 1.9323829481097756 L 0.7707364580631486 1.9323829481097756 L 0.7707364580631486 1.9052019189824074 L 0.7874918869772797 1.9052019189824074 L 0.7941940585429321 1.8508398607276713 L 0.818024001887474 1.8508398607276713 L 0.818024001887474 1.9052019189824074 L 0.8444603452853252 1.9052019189824074 L 0.8444603452853252 1.9323829481097756 L 0.818024001887474 1.9323829481097756 L 0.818024001887474 2.0604688935866884 Q 0.818024001887474 2.0783413510950948 0.8355241165311219 2.0783413510950948 L 0.8444603452853252 2.0783413510950948 L 0.8444603452853252 2.099564894386327 Q 0.840364573772982 2.101798951574878 0.8342209165044673 2.103288323033912 Q 0.8280772592359527 2.1047776944929457 0.8224921162645756 2.1047776944929457 Q 0.8038749730266522 2.1047776944929457 0.795683430001966 2.0919318656587786 M 0.8848697273618271 2.0811339225807832 Q 0.866438755556283 2.0567454649391035 0.866438755556283 2.0031280924138843 Q 0.866438755556283 1.9506277484829404 0.8846835559294479 1.925680776544123 Q 0.9029283563026128 1.900733804605306 0.9401626427784595 1.900733804605306 Q 0.9729288148772046 1.900733804605306 0.9887533866294396 1.9225158621936762 Q 1.0045779583816743 1.9442979197820465 1.0045779583816743 1.9927024922006473 L 1.0045779583816743 2.0120643211680878 L 0.8984602419255112 2.0120643211680878 Q 0.8988325847902696 2.0463198647258665 0.9090720135711275 2.062330607910481 Q 0.9193114423519854 2.0783413510950948 0.9412796713727349 2.0783413510950948 Q 0.9561733859630737 2.0783413510950948 0.965295786149656 2.0664263794228237 Q 0.9744181863362386 2.0545114077505526 0.9744181863362386 2.034404893053596 L 1.0045779583816743 2.034404893053596 Q 1.0045779583816743 2.067171065152341 0.9868916723056471 2.0863467226874017 Q 0.9692053862296199 2.105522380222463 0.940534985643218 2.105522380222463 Q 0.9033006991673713 2.105522380222463 0.8848697273618271 2.0811339225807832 M 0.9725564720124462 1.9848832920407196 Q 0.9725564720124462 1.9569575771838343 0.9643649289877599 1.9424362054582542 Q 0.9561733859630737 1.927914833732674 0.9401626427784595 1.927914833732674 Q 0.9204284709462608 1.927914833732674 0.9105613850301614 1.9418776911611164 Q 0.900694299114062 1.955840548589559 0.8988325847902696 1.9848832920407196 L 0.9725564720124462 1.9848832920407196 M 1.1866699819721138 1.9953088922539566 L 1.104009865995734 1.8456270606210528 L 1.1401271238773054 1.8456270606210528 L 1.2049147823452788 1.9640320916142453 L 1.2064041538043127 1.9640320916142453 L 1.2700747836780106 1.8456270606210528 L 1.3017239271824803 1.8456270606210528 L 1.219436154070859 1.9953088922539566 L 1.219436154070859 2.1010542658453613 L 1.1866699819721138 2.1010542658453613 L 1.1866699819721138 1.9953088922539566 M 1.3097236627255648 2.0803892368512664 Q 1.2920373766495377 2.05525609348007 1.2920373766495377 2.0031280924138843 Q 1.2920373766495377 1.951000091347699 1.3097236627255648 1.9258669479765025 Q 1.327409948801592 1.900733804605306 1.3620378352241294 1.900733804605306 Q 1.396665721646667 1.900733804605306 1.414352007722694 1.9258669479765025 Q 1.4320382937987213 1.951000091347699 1.4320382937987213 2.0031280924138843 Q 1.4320382937987213 2.05525609348007 1.414352007722694 2.0803892368512664 Q 1.396665721646667 2.105522380222463 1.3620378352241294 2.105522380222463 Q 1.327409948801592 2.105522380222463 1.3097236627255648 2.0803892368512664 M 1.4000168074294932 2.0102026068442953 L 1.4000168074294932 1.9960535779834734 Q 1.4000168074294932 1.927914833732674 1.3620378352241294 1.927914833732674 Q 1.3240588630187657 1.927914833732674 1.3240588630187657 1.9960535779834734 L 1.3240588630187657 2.0102026068442953 Q 1.3240588630187657 2.0783413510950948 1.3620378352241294 2.0783413510950948 Q 1.4000168074294932 2.0783413510950948 1.4000168074294932 2.0102026068442953 M 1.4821160456042226 2.0915595227940202 Q 1.469642559634814 2.077596665365578 1.469642559634814 2.0463198647258665 L 1.469642559634814 1.9052019189824074 L 1.5001746745450082 1.9052019189824074 L 1.5001746745450082 2.0440858075373156 Q 1.5001746745450082 2.0630752936399976 1.5072491889754192 2.070708322367546 Q 1.51432370340583 2.0783413510950948 1.5277280465371348 2.0783413510950948 Q 1.542994103992232 2.0783413510950948 1.5536058756378484 2.0638199793695144 Q 1.5642176472834646 2.049298607643934 1.5642176472834646 2.0247239785698756 L 1.5642176472834646 1.9052019189824074 L 1.5947497621936588 1.9052019189824074 L 1.5947497621936588 2.1010542658453613 L 1.571664504578634 2.1010542658453613 L 1.5675687330662909 2.0783413510950948 L 1.56533467587774 2.0783413510950948 Q 1.5500686184226429 2.105522380222463 1.5180471320534146 2.105522380222463 Q 1.4945895315736313 2.105522380222463 1.4821160456042226 2.0915595227940202 M 1.6398008853249209 1.9052019189824074 L 1.6628861429399457 1.9052019189824074 L 1.6669819144522888 1.9308935766507418 L 1.6692159716408397 1.9308935766507418 Q 1.6733117431531828 1.9178615763841953 1.6815032861778691 1.9092976904947507 Q 1.6896948292025553 1.900733804605306 1.7023544866043432 1.900733804605306 Q 1.707567286710962 1.900733804605306 1.711663058223305 1.9020370046319606 Q 1.715758829735648 1.9033402046586152 1.7168758583299235 1.9037125475233736 L 1.7168758583299235 1.9353616910278433 L 1.706822600981445 1.9353616910278433 Q 1.6908118577968307 1.9353616910278433 1.680572429015973 1.9463458055382181 Q 1.670333000235115 1.957329920048593 1.670333000235115 1.9815322062578933 L 1.670333000235115 2.1010542658453613 L 1.6398008853249209 2.1010542658453613 L 1.6398008853249209 1.9052019189824074 M 1.9183273473832907 1.9681278631265884 L 2.01811523513856 1.9681278631265884 L 2.01811523513856 2.1010542658453613 L 1.9965193489825688 2.1010542658453613 L 1.989444834552158 2.072756208123718 Q 1.96710426266665 2.105522380222463 1.9235401474899092 2.105522380222463 Q 1.8747632322065502 2.105522380222463 1.8488854031058366 2.0723838652589595 Q 1.8230075740051233 2.0392453502954555 1.8230075740051233 1.973340663233207 Q 1.8230075740051233 1.9081806619004753 1.8498162602677328 1.8746698040722132 Q 1.8766249465303424 1.841158946243951 1.9254018618137017 1.841158946243951 Q 1.96710426266665 1.841158946243951 1.992609748902605 1.8646165467237346 Q 2.01811523513856 1.888074147203518 2.01811523513856 1.932755290974534 L 1.984604377310298 1.932755290974534 Q 1.984604377310298 1.9018508331995814 1.968779805558063 1.886584775744484 Q 1.9529552338058283 1.871318718289387 1.9254018618137017 1.871318718289387 Q 1.893008032579715 1.871318718289387 1.8751355750713086 1.8947763187691704 Q 1.8572631175629022 1.918233919248954 1.8572631175629022 1.9640320916142453 L 1.8572631175629022 1.9826492348521687 Q 1.8572631175629022 2.0288197500822185 1.8742047179094123 2.052091179129623 Q 1.8911463182559227 2.075362608177027 1.9235401474899092 2.075362608177027 Q 1.955189290994379 2.075362608177027 1.9698968341523384 2.0574901506686207 Q 1.984604377310298 2.0396176931602144 1.984604377310298 2.002755749549126 L 1.984604377310298 1.9967982637129904 L 1.9183273473832907 1.9967982637129904 L 1.9183273473832907 1.9681278631265884 M 2.05683907488148 2.1658419243133347 L 2.05683907488148 2.144618381022102 L 2.0676370179594756 2.144618381022102 Q 2.0970521042753947 2.144618381022102 2.106360675894356 2.1010542658453613 L 2.0464134746682427 1.9052019189824074 L 2.079924332496505 1.9052019189824074 L 2.1130628474600086 2.0221175785165664 L 2.1231161048084872 2.0571178078038623 L 2.1246054762675213 2.0571178078038623 L 2.133169362156966 2.021372892787049 L 2.161095077013851 1.9052019189824074 L 2.1919995347888035 1.9052019189824074 L 2.1421055909111693 2.0910010084968826 Q 2.132424676427449 2.1274906092432126 2.1175309618371103 2.1481556382373075 Q 2.1026372472467716 2.1688206672314023 2.0788073039022295 2.1688206672314023 Q 2.065402960770925 2.1688206672314023 2.05683907488148 2.1658419243133347 M 2.2180535358797275 1.9052019189824074 L 2.2411387934947524 1.9052019189824074 L 2.2452345650070957 1.927914833732674 L 2.2474686221956466 1.927914833732674 Q 2.2619899939212265 1.900733804605306 2.2921497659666623 1.900733804605306 Q 2.323798909471132 1.900733804605306 2.333852166819611 1.9290318623269493 Q 2.34129902411478 1.915255176330886 2.3541448529489473 1.9079944904680959 Q 2.3669906817831143 1.900733804605306 2.3815120535086947 1.900733804605306 Q 2.4276825687387444 1.900733804605306 2.4276825687387444 1.9599363201019022 L 2.4276825687387444 2.1010542658453613 L 2.39715045382855 2.1010542658453613 L 2.39715045382855 1.962170377290453 Q 2.39715045382855 1.943180891187771 2.3904482822628976 1.9355478624602225 Q 2.3837461106972455 1.927914833732674 2.3718311390249744 1.927914833732674 Q 2.3576821101641525 1.927914833732674 2.3480011956804328 1.9424362054582542 Q 2.3383202811967125 1.9569575771838343 2.3383202811967125 1.9815322062578933 L 2.3383202811967125 2.1010542658453613 L 2.3077881662865183 2.1010542658453613 L 2.3077881662865183 1.962170377290453 Q 2.3077881662865183 1.943180891187771 2.3010859947208657 1.9355478624602225 Q 2.294383823155213 1.927914833732674 2.2824688514829425 1.927914833732674 Q 2.2683198226221206 1.927914833732674 2.258452736706021 1.9424362054582542 Q 2.248585650789922 1.9569575771838343 2.248585650789922 1.9815322062578933 L 2.248585650789922 2.1010542658453613 L 2.2180535358797275 2.1010542658453613 L 2.2180535358797275 1.9052019189824074 M 2.4891129599505506 2.1010542658453613 L 2.474219245360212 2.1010542658453613 L 2.474219245360212 2.060841236451447 L 2.5114535318360587 2.060841236451447 L 2.5114535318360587 2.097703180062535 L 2.4935810743276523 2.147224781075411 L 2.474219245360212 2.147224781075411 L 2.4891129599505506 2.1010542658453613 M 2.660224868807483 2.0869052369845393 Q 2.636208754030562 2.068288093746616 2.636208754030562 2.0288197500822185 L 2.6365810968953203 2.021372892787049 L 2.670464297588341 2.021372892787049 L 2.6700919547235826 2.029192092946977 Q 2.6700919547235826 2.0519050076972434 2.684054812152025 2.0636338079371352 Q 2.6980176695804676 2.075362608177027 2.720730584330734 2.075362608177027 Q 2.7464222419990683 2.075362608177027 2.7603850994275105 2.064378493666652 Q 2.7743479568559533 2.0533943791562774 2.7743479568559533 2.032915521594562 Q 2.7743479568559533 2.0191388355984983 2.7667149281284047 2.0103887782766745 Q 2.759081899400856 2.0016387209548503 2.7477254420257227 1.996425920848232 Q 2.7363689846505896 1.9912131207416135 2.716634812818391 1.9848832920407196 Q 2.6924325266090903 1.9766917490160332 2.677538812018752 1.9692448917208638 Q 2.6626450974284133 1.9617980344256944 2.6520333257827966 1.9474628341324935 Q 2.6414215541371804 1.9331276338392924 2.6414215541371804 1.9096700333595091 Q 2.6414215541371804 1.876159175531247 2.664134468887447 1.858659060887599 Q 2.6868473836377134 1.841158946243951 2.722592298654526 1.841158946243951 Q 2.7583372136713393 1.841158946243951 2.7804916141244678 1.8588452323199782 Q 2.8026460145775967 1.8765315183960054 2.8026460145775967 1.9130211191423352 L 2.8026460145775967 1.917489233519437 L 2.7687628138845763 1.917489233519437 L 2.7687628138845763 1.91190409054806 Q 2.7687628138845763 1.892914604445378 2.7559169850504093 1.8821166613673825 Q 2.743071156216242 1.871318718289387 2.7233369843840434 1.871318718289387 Q 2.7021134410928105 1.871318718289387 2.689081440826264 1.8804411184759693 Q 2.676049440559718 1.889563518662552 2.676049440559718 1.9070636333061999 Q 2.676049440559718 1.9200956335727462 2.6834962978548873 1.9284733480298117 Q 2.6909431551500567 1.936851062486877 2.7021134410928105 1.9418776911611164 Q 2.7132837270355648 1.9469043198353557 2.7326455560030047 1.9532341485362497 Q 2.7572201850770637 1.961425691560936 2.7723000710997816 1.9686863774237262 Q 2.7873799571224995 1.9759470632865161 2.7979917287681157 1.9902822635797173 Q 2.8086035004137324 2.0046174638729184 2.8086035004137324 2.027330378623185 Q 2.8086035004137324 2.068288093746616 2.785332071366328 2.0869052369845393 Q 2.762060642318924 2.105522380222463 2.7222199557897677 2.105522380222463 Q 2.684240983584404 2.105522380222463 2.660224868807483 2.0869052369845393 M 2.8436026388527913 1.8318503746249895 L 2.874134753762986 1.8318503746249895 L 2.874134753762986 1.8683399753713192 L 2.8436026388527913 1.8683399753713192 L 2.8436026388527913 1.8318503746249895 M 2.8436026388527913 1.9052019189824074 L 2.874134753762986 1.9052019189824074 L 2.874134753762986 2.1010542658453613 L 2.8436026388527913 2.1010542658453613 L 2.8436026388527913 1.9052019189824074 M 2.915467357063728 1.9052019189824074 L 2.938552614678753 1.9052019189824074 L 2.942648386191096 1.927914833732674 L 2.944882443379647 1.927914833732674 Q 2.959403815105227 1.900733804605306 2.9895635871506627 1.900733804605306 Q 3.0212127306551326 1.900733804605306 3.0312659880036112 1.9290318623269493 Q 3.0387128452987806 1.915255176330886 3.0515586741329477 1.9079944904680959 Q 3.0644045029671148 1.900733804605306 3.078925874692695 1.900733804605306 Q 3.125096389922745 1.900733804605306 3.125096389922745 1.9599363201019022 L 3.125096389922745 2.1010542658453613 L 3.0945642750125506 2.1010542658453613 L 3.0945642750125506 1.962170377290453 Q 3.0945642750125506 1.943180891187771 3.087862103446898 1.9355478624602225 Q 3.081159931881246 1.927914833732674 3.069244960208975 1.927914833732674 Q 3.055095931348153 1.927914833732674 3.045415016864433 1.9424362054582542 Q 3.035734102380713 1.9569575771838343 3.035734102380713 1.9815322062578933 L 3.035734102380713 2.1010542658453613 L 3.0052019874705187 2.1010542658453613 L 3.0052019874705187 1.962170377290453 Q 3.0052019874705187 1.943180891187771 2.998499815904866 1.9355478624602225 Q 2.9917976443392136 1.927914833732674 2.9798826726669425 1.927914833732674 Q 2.965733643806121 1.927914833732674 2.9558665578900216 1.9424362054582542 Q 2.945999471973922 1.9569575771838343 2.945999471973922 1.9815322062578933 L 2.945999471973922 2.1010542658453613 L 2.915467357063728 2.1010542658453613 L 2.915467357063728 1.9052019189824074 M 3.1701436950851787 1.9052019189824074 L 3.1932289527002036 1.9052019189824074 L 3.197324724212547 1.927914833732674 L 3.199186438536339 1.927914833732674 Q 3.20626095296675 1.9145104906013692 3.217431238909504 1.9076221476033375 Q 3.228601524852258 1.900733804605306 3.2420058679835626 1.900733804605306 Q 3.2710486114347233 1.900733804605306 3.286873183186958 1.9260531194088817 Q 3.302697754939193 1.9513724342124574 3.302697754939193 2.0035004352786427 Q 3.302697754939193 2.0541390648857942 3.2865008403221996 2.079830722554129 Q 3.2703039257052064 2.105522380222463 3.2442399251721135 2.105522380222463 Q 3.230090896311292 2.105522380222463 3.2187344389361585 2.0997510658187064 Q 3.2073779815610255 2.0939797514149503 3.2025375243191654 2.0839264940664717 L 3.200675809995373 2.0839264940664717 L 3.200675809995373 2.1654695814485763 L 3.1701436950851787 2.1654695814485763 L 3.1701436950851787 1.9052019189824074 M 3.26211238268052 2.062330607910481 Q 3.270676268569965 2.0463198647258665 3.270676268569965 2.0102026068442953 L 3.270676268569965 1.9960535779834734 Q 3.270676268569965 1.9599363201019022 3.26211238268052 1.943925576917288 Q 3.2535484967910753 1.927914833732674 3.235676039282669 1.927914833732674 Q 3.200675809995373 1.927914833732674 3.200675809995373 1.9960535779834734 L 3.200675809995373 2.0102026068442953 Q 3.200675809995373 2.0783413510950948 3.235676039282669 2.0783413510950948 Q 3.2535484967910753 2.0783413510950948 3.26211238268052 2.062330607910481 M 3.3365785921277005 1.8318503746249895 L 3.367110707037895 1.8318503746249895 L 3.367110707037895 2.1010542658453613 L 3.3365785921277005 2.1010542658453613 L 3.3365785921277005 1.8318503746249895 M 3.404719881691052 1.8318503746249895 L 3.435251996601247 1.8318503746249895 L 3.435251996601247 1.8683399753713192 L 3.404719881691052 1.8683399753713192 L 3.404719881691052 1.8318503746249895 M 3.404719881691052 1.9052019189824074 L 3.435251996601247 1.9052019189824074 L 3.435251996601247 2.1010542658453613 L 3.404719881691052 2.1010542658453613 L 3.404719881691052 1.9052019189824074 M 3.4747228855781964 1.9323829481097756 L 3.457595113799307 1.9323829481097756 L 3.457595113799307 1.9052019189824074 L 3.4747228855781964 1.9052019189824074 L 3.4747228855781964 1.8739251183426962 Q 3.4747228855781964 1.854563289375256 3.483845285764779 1.8417174605410889 Q 3.492967685951361 1.8288716317069218 3.5134465435130773 1.8288716317069218 Q 3.5264785437796236 1.8288716317069218 3.5391382011814114 1.8333397460840233 L 3.5391382011814114 1.854563289375256 L 3.5227551151320387 1.854563289375256 Q 3.5052550004883907 1.854563289375256 3.5052550004883907 1.8724357468836623 L 3.5052550004883907 1.9052019189824074 L 3.5391382011814114 1.9052019189824074 L 3.5391382011814114 1.9323829481097756 L 3.5052550004883907 1.9323829481097756 L 3.5052550004883907 2.1010542658453613 L 3.4747228855781964 2.1010542658453613 L 3.4747228855781964 1.9323829481097756 M 3.5536697541572 2.1658419243133347 L 3.5536697541572 2.144618381022102 L 3.5644676972351954 2.144618381022102 Q 3.5938827835511145 2.144618381022102 3.603191355170076 2.1010542658453613 L 3.5432441539439625 1.9052019189824074 L 3.576755011772225 1.9052019189824074 L 3.6098935267357284 2.0221175785165664 L 3.619946784084207 2.0571178078038623 L 3.621436155543241 2.0571178078038623 L 3.6300000414326856 2.021372892787049 L 3.6579257562895706 1.9052019189824074 L 3.6888302140645233 1.9052019189824074 L 3.638936270186889 2.0910010084968826 Q 3.629255355703169 2.1274906092432126 3.61436164111283 2.1481556382373075 Q 3.5994679265224914 2.1688206672314023 3.5756379831779492 2.1688206672314023 Q 3.5622336400466446 2.1688206672314023 3.5536697541572 2.1658419243133347 M 3.8582549443155187 1.9953088922539566 L 3.775594828339139 1.8456270606210528 L 3.8117120862207106 1.8456270606210528 L 3.8764997446886835 1.9640320916142453 L 3.8779891161477176 1.9640320916142453 L 3.9416597460214153 1.8456270606210528 L 3.9733088895258852 1.8456270606210528 L 3.891021116414264 1.9953088922539566 L 3.891021116414264 2.1010542658453613 L 3.8582549443155187 2.1010542658453613 L 3.8582549443155187 1.9953088922539566 M 3.9813086250689698 2.0803892368512664 Q 3.9636223389929426 2.05525609348007 3.9636223389929426 2.0031280924138843 Q 3.9636223389929426 1.951000091347699 3.9813086250689698 1.9258669479765025 Q 3.998994911144997 1.900733804605306 4.033622797567534 1.900733804605306 Q 4.068250683990072 1.900733804605306 4.085936970066099 1.9258669479765025 Q 4.103623256142126 1.951000091347699 4.103623256142126 2.0031280924138843 Q 4.103623256142126 2.05525609348007 4.085936970066099 2.0803892368512664 Q 4.068250683990072 2.105522380222463 4.033622797567534 2.105522380222463 Q 3.998994911144997 2.105522380222463 3.9813086250689698 2.0803892368512664 M 4.071601769772898 2.0102026068442953 L 4.071601769772898 1.9960535779834734 Q 4.071601769772898 1.927914833732674 4.033622797567534 1.927914833732674 Q 3.995643825362171 1.927914833732674 3.995643825362171 1.9960535779834734 L 3.995643825362171 2.0102026068442953 Q 3.995643825362171 2.0783413510950948 4.033622797567534 2.0783413510950948 Q 4.071601769772898 2.0783413510950948 4.071601769772898 2.0102026068442953 M 4.153701007947627 2.0915595227940202 Q 4.141227521978219 2.077596665365578 4.141227521978219 2.0463198647258665 L 4.141227521978219 1.9052019189824074 L 4.171759636888414 1.9052019189824074 L 4.171759636888414 2.0440858075373156 Q 4.171759636888414 2.0630752936399976 4.178834151318824 2.070708322367546 Q 4.185908665749235 2.0783413510950948 4.19931300888054 2.0783413510950948 Q 4.214579066335637 2.0783413510950948 4.225190837981254 2.0638199793695144 Q 4.2358026096268695 2.049298607643934 4.2358026096268695 2.0247239785698756 L 4.2358026096268695 1.9052019189824074 L 4.266334724537064 1.9052019189824074 L 4.266334724537064 2.1010542658453613 L 4.243249466922039 2.1010542658453613 L 4.239153695409696 2.0783413510950948 L 4.236919638221145 2.0783413510950948 Q 4.221653580766048 2.105522380222463 4.18963209439682 2.105522380222463 Q 4.166174493917036 2.105522380222463 4.153701007947627 2.0915595227940202 M 4.311385847668325 1.9052019189824074 L 4.334471105283351 1.9052019189824074 L 4.338566876795694 1.9308935766507418 L 4.340800933984244 1.9308935766507418 Q 4.344896705496588 1.9178615763841953 4.353088248521274 1.9092976904947507 Q 4.36127979154596 1.900733804605306 4.373939448947748 1.900733804605306 Q 4.379152249054367 1.900733804605306 4.38324802056671 1.9020370046319606 Q 4.3873437920790535 1.9033402046586152 4.388460820673329 1.9037125475233736 L 4.388460820673329 1.9353616910278433 L 4.37840756332485 1.9353616910278433 Q 4.362396820140236 1.9353616910278433 4.352157391359378 1.9463458055382181 Q 4.3419179625785205 1.957329920048593 4.3419179625785205 1.9815322062578933 L 4.3419179625785205 2.1010542658453613 L 4.311385847668325 2.1010542658453613 L 4.311385847668325 1.9052019189824074 M 4.499432993590388 1.8456270606210528 L 4.549326937468023 1.8456270606210528 L 4.594380424103797 2.013181349762363 Q 4.597359167021865 2.0247239785698756 4.599779395642795 2.0444581504020745 Q 4.602199624263725 2.064192322234273 4.602944309993242 2.070522150935167 L 4.604433681452275 2.070522150935167 Q 4.604806024317035 2.064192322234273 4.607226252937965 2.044271978969695 Q 4.609646481558894 2.0243516357051172 4.612625224476962 2.013181349762363 L 4.658051053977495 1.8456270606210528 L 4.707572654990371 1.8456270606210528 L 4.707572654990371 2.1010542658453613 L 4.674806482891626 2.1010542658453613 L 4.674806482891626 1.9156275191956444 Q 4.674806482891626 1.9100423762242675 4.675923511485902 1.8955210044986872 Q 4.677040540080177 1.880999632773107 4.677412882944935 1.876159175531247 L 4.675923511485902 1.876159175531247 Q 4.674806482891626 1.880999632773107 4.671827739973558 1.8955210044986872 Q 4.66884899705549 1.9100423762242675 4.667359625596457 1.9156275191956444 L 4.616348653124547 2.1010542658453613 L 4.586933566808628 2.1010542658453613 L 4.535922594336718 1.9156275191956444 Q 4.5336885371481666 1.9063189475766829 4.531454479959616 1.8938454616072742 Q 4.529220422771066 1.8813719756378655 4.52810339417679 1.876159175531247 L 4.526614022717756 1.876159175531247 Q 4.526986365582514 1.8813719756378655 4.527731051312031 1.8938454616072742 Q 4.528475737041548 1.9063189475766829 4.5288480799063064 1.9156275191956444 L 4.5288480799063064 2.1010542658453613 L 4.499432993590388 2.1010542658453613 L 4.499432993590388 1.8456270606210528 M 4.7593221317184575 2.093607408550192 Q 4.743683731398602 2.081692436877921 4.743683731398602 2.0504156362382098 Q 4.743683731398602 2.0128090068976046 4.7691892176345565 1.998846149469162 Q 4.794694703870512 1.9848832920407196 4.842726933424354 1.9848832920407196 L 4.842726933424354 1.9595639772371438 Q 4.842726933424354 1.9442979197820465 4.836024761858702 1.9361063767573603 Q 4.8293225902930494 1.927914833732674 4.811822475649401 1.927914833732674 Q 4.795811732464787 1.927914833732674 4.788737218034376 1.936851062486877 Q 4.781662703603965 1.9457872912410803 4.781662703603965 1.9588192915076268 L 4.781662703603965 1.9632874058847283 L 4.751502931558529 1.9632874058847283 Q 4.751130588693771 1.9610533486961776 4.751130588693771 1.955095862860042 Q 4.751130588693771 1.9290318623269493 4.76825836047266 1.9148828334661276 Q 4.78538613225155 1.900733804605306 4.814056532837952 1.900733804605306 Q 4.8434716191538705 1.900733804605306 4.858365333744209 1.9148828334661276 Q 4.873259048334548 1.9290318623269493 4.873259048334548 1.9554682057248005 L 4.873259048334548 2.0653093508285485 Q 4.873259048334548 2.071639179529442 4.876237791252616 2.0749902653122687 Q 4.879216534170683 2.0783413510950948 4.883684648547785 2.0783413510950948 L 4.8955996202200565 2.0783413510950948 L 4.8955996202200565 2.099564894386327 Q 4.88740807719537 2.104033008763429 4.875493105523099 2.104033008763429 Q 4.863578133850828 2.104033008763429 4.855572762258521 2.097517008630156 Q 4.847567390666214 2.0910010084968826 4.844588647748147 2.079830722554129 L 4.842726933424354 2.079830722554129 Q 4.835280076129185 2.092118037091158 4.822806590159776 2.0988202086568104 Q 4.810333104190367 2.105522380222463 4.79506704673527 2.105522380222463 Q 4.774960532038313 2.105522380222463 4.7593221317184575 2.093607408550192 M 4.821503390133121 2.072756208123718 Q 4.830811961752083 2.067171065152341 4.836769447588218 2.056186950641966 Q 4.842726933424354 2.0452028361315913 4.842726933424354 2.029936778676494 L 4.842726933424354 2.0120643211680878 Q 4.809216075596092 2.0120643211680878 4.792460646681961 2.0196973498956363 Q 4.77570521776783 2.027330378623185 4.77570521776783 2.0485539219144173 Q 4.77570521776783 2.0645646650990312 4.782221217901103 2.071453008097063 Q 4.788737218034376 2.0783413510950948 4.802141561165681 2.0783413510950948 Q 4.812194818514159 2.0783413510950948 4.821503390133121 2.072756208123718 M 4.923522971572428 1.9052019189824074 L 4.946608229187453 1.9052019189824074 L 4.950704000699797 1.927914833732674 L 4.952938057888347 1.927914833732674 Q 4.968204115343444 1.900733804605306 5.000225601712673 1.900733804605306 Q 5.023683202192456 1.900733804605306 5.0361566881618645 1.9146966620337484 Q 5.048630174131273 1.928659519462191 5.048630174131273 1.9599363201019022 L 5.048630174131273 2.1010542658453613 L 5.018098059221079 2.1010542658453613 L 5.018098059221079 1.962170377290453 Q 5.018098059221079 1.943180891187771 5.011023544790668 1.9355478624602225 Q 5.003949030360257 1.927914833732674 4.990544687228953 1.927914833732674 Q 4.975278629773856 1.927914833732674 4.964666858128239 1.9424362054582542 Q 4.954055086482623 1.9569575771838343 4.954055086482623 1.9815322062578933 L 4.954055086482623 2.1010542658453613 L 4.923522971572428 2.1010542658453613 L 4.923522971572428 1.9052019189824074 M 5.099638783098671 2.093607408550192 Q 5.084000382778815 2.081692436877921 5.084000382778815 2.0504156362382098 Q 5.084000382778815 2.0128090068976046 5.10950586901477 1.998846149469162 Q 5.135011355250725 1.9848832920407196 5.183043584804567 1.9848832920407196 L 5.183043584804567 1.9595639772371438 Q 5.183043584804567 1.9442979197820465 5.176341413238915 1.9361063767573603 Q 5.169639241673263 1.927914833732674 5.152139127029614 1.927914833732674 Q 5.1361283838450005 1.927914833732674 5.129053869414589 1.936851062486877 Q 5.121979354984179 1.9457872912410803 5.121979354984179 1.9588192915076268 L 5.121979354984179 1.9632874058847283 L 5.091819582938743 1.9632874058847283 Q 5.091447240073984 1.9610533486961776 5.091447240073984 1.955095862860042 Q 5.091447240073984 1.9290318623269493 5.108575011852873 1.9148828334661276 Q 5.1257027836317635 1.900733804605306 5.154373184218166 1.900733804605306 Q 5.183788270534084 1.900733804605306 5.198681985124423 1.9148828334661276 Q 5.213575699714761 1.9290318623269493 5.213575699714761 1.9554682057248005 L 5.213575699714761 2.0653093508285485 Q 5.213575699714761 2.071639179529442 5.216554442632829 2.0749902653122687 Q 5.219533185550897 2.0783413510950948 5.224001299927998 2.0783413510950948 L 5.23591627160027 2.0783413510950948 L 5.23591627160027 2.099564894386327 Q 5.227724728575583 2.104033008763429 5.215809756903313 2.104033008763429 Q 5.203894785231041 2.104033008763429 5.195889413638734 2.097517008630156 Q 5.187884042046427 2.0910010084968826 5.18490529912836 2.079830722554129 L 5.183043584804567 2.079830722554129 Q 5.175596727509398 2.092118037091158 5.1631232415399895 2.0988202086568104 Q 5.150649755570581 2.105522380222463 5.135383698115484 2.105522380222463 Q 5.115277183418526 2.105522380222463 5.099638783098671 2.093607408550192 M 5.161820041513335 2.072756208123718 Q 5.171128613132296 2.067171065152341 5.177086098968432 2.056186950641966 Q 5.183043584804567 2.0452028361315913 5.183043584804567 2.029936778676494 L 5.183043584804567 2.0120643211680878 Q 5.149532726976306 2.0120643211680878 5.132777298062174 2.0196973498956363 Q 5.116021869148043 2.027330378623185 5.116021869148043 2.0485539219144173 Q 5.116021869148043 2.0645646650990312 5.122537869281317 2.071453008097063 Q 5.129053869414589 2.0783413510950948 5.142458212545894 2.0783413510950948 Q 5.152511469894373 2.0783413510950948 5.161820041513335 2.072756208123718 M 5.258999165710781 2.155602495532477 Q 5.246339508308994 2.142384323833551 5.246339508308994 2.1222778091365937 Q 5.246339508308994 2.107756437411014 5.253227851307026 2.0963999800358804 Q 5.260116194305057 2.0850435226607473 5.27165882311257 2.0805754082836456 Q 5.264211965817401 2.0757349510417855 5.259930022872678 2.0679157508818578 Q 5.255648079927956 2.06009655072193 5.255648079927956 2.0511603219677266 Q 5.255648079927956 2.0396176931602144 5.263094937223125 2.030681464406011 Q 5.270541794518294 2.0217452356518075 5.283201451920082 2.0172771212747063 Q 5.260488537169816 1.9986599780367829 5.260488537169816 1.9666384916675546 Q 5.260488537169816 1.9357340338926017 5.277616308948705 1.918233919248954 Q 5.294744080727595 1.900733804605306 5.324531509908272 1.900733804605306 Q 5.3397975673633695 1.900733804605306 5.352829567629915 1.9078083190357167 Q 5.364744539302187 1.9014784903348227 5.370143510841184 1.892914604445378 Q 5.375542482380182 1.8843507185559334 5.377031853839216 1.8735527754779377 L 5.403840540101825 1.8735527754779377 Q 5.403840540101825 1.8914252329863441 5.3950904827800015 1.904084890388132 Q 5.386340425458178 1.9167445477899199 5.371074368003081 1.9204679764375046 Q 5.388574482646728 1.9387127768106696 5.388574482646728 1.9666384916675546 Q 5.388574482646728 1.9967982637129904 5.371632882300218 2.014484549789018 Q 5.354691281953707 2.032170835865045 5.326020881367306 2.0325431787298034 L 5.30554202380559 2.0325431787298034 Q 5.298095166510421 2.0325431787298034 5.292882366403802 2.0375698074040427 Q 5.2876695662971835 2.042596436078282 5.2876695662971835 2.0500432933734514 Q 5.2876695662971835 2.0571178078038623 5.292882366403802 2.062330607910481 Q 5.298095166510421 2.0675434080170993 5.30554202380559 2.0675434080170993 L 5.36139345351936 2.0675434080170993 Q 5.382244653945834 2.0675434080170993 5.394904311347622 2.080761579716025 Q 5.40756396874941 2.0939797514149503 5.40756396874941 2.1133415803823907 Q 5.40756396874941 2.1375438665916913 5.392484082726693 2.153182266911547 Q 5.377404196703974 2.1688206672314023 5.3502231675766065 2.1688206672314023 L 5.294744080727595 2.1688206672314023 Q 5.27165882311257 2.1688206672314023 5.258999165710781 2.155602495532477 M 5.348919967549952 1.996425920848232 Q 5.3576700248717755 1.9856279777702364 5.3576700248717755 1.9666384916675546 Q 5.3576700248717755 1.9469043198353557 5.348919967549952 1.9364787196221187 Q 5.340169910228128 1.9260531194088817 5.324159167043513 1.9260531194088817 Q 5.308148423858899 1.9260531194088817 5.299584537969455 1.936851062486877 Q 5.29102065208001 1.9476490055648727 5.29102065208001 1.9666384916675546 Q 5.29102065208001 1.9863726634997534 5.299584537969455 1.9967982637129904 Q 5.308148423858899 2.0072238639262276 5.324159167043513 2.0072238639262276 Q 5.340169910228128 2.0072238639262276 5.348919967549952 1.996425920848232 M 5.353574253359432 2.142384323833551 Q 5.363255167843152 2.142384323833551 5.369957339408805 2.135682152267899 Q 5.3766595109744575 2.1289799807022463 5.3766595109744575 2.119299066218526 Q 5.3766595109744575 2.1092458088700474 5.370702025138322 2.1029159801691537 Q 5.364744539302187 2.0965861514682596 5.353574253359432 2.0965861514682596 L 5.299584537969455 2.0965861514682596 Q 5.2884142520267 2.0965861514682596 5.282642937622945 2.1029159801691537 Q 5.276871623219188 2.1092458088700474 5.276871623219188 2.119299066218526 Q 5.276871623219188 2.1293523235670047 5.282829109055323 2.135868323700278 Q 5.288786594891459 2.142384323833551 5.299584537969455 2.142384323833551 L 5.353574253359432 2.142384323833551 M 5.44572674888264 2.0811339225807832 Q 5.427295777077096 2.0567454649391035 5.427295777077096 2.0031280924138843 Q 5.427295777077096 1.9506277484829404 5.445540577450261 1.925680776544123 Q 5.4637853778234255 1.900733804605306 5.501019664299273 1.900733804605306 Q 5.5337858363980175 1.900733804605306 5.549610408150253 1.9225158621936762 Q 5.565434979902488 1.9442979197820465 5.565434979902488 1.9927024922006473 L 5.565434979902488 2.0120643211680878 L 5.459317263446324 2.0120643211680878 Q 5.459689606311083 2.0463198647258665 5.4699290350919405 2.062330607910481 Q 5.480168463872799 2.0783413510950948 5.502136692893548 2.0783413510950948 Q 5.517030407483887 2.0783413510950948 5.526152807670469 2.0664263794228237 Q 5.535275207857052 2.0545114077505526 5.535275207857052 2.034404893053596 L 5.565434979902488 2.034404893053596 Q 5.565434979902488 2.067171065152341 5.547748693826461 2.0863467226874017 Q 5.5300624077504335 2.105522380222463 5.501392007164031 2.105522380222463 Q 5.464157720688184 2.105522380222463 5.44572674888264 2.0811339225807832 M 5.533413493533259 1.9848832920407196 Q 5.533413493533259 1.9569575771838343 5.525221950508573 1.9424362054582542 Q 5.517030407483887 1.927914833732674 5.501019664299273 1.927914833732674 Q 5.481285492467074 1.927914833732674 5.471418406550974 1.9418776911611164 Q 5.461551320634875 1.955840548589559 5.459689606311083 1.9848832920407196 L 5.533413493533259 1.9848832920407196 M 5.604156274332855 1.9052019189824074 L 5.62724153194788 1.9052019189824074 L 5.631337303460223 1.927914833732674 L 5.633571360648774 1.927914833732674 Q 5.648092732374354 1.900733804605306 5.67825250441979 1.900733804605306 Q 5.7099016479242595 1.900733804605306 5.719954905272738 1.9290318623269493 Q 5.727401762567908 1.915255176330886 5.740247591402075 1.9079944904680959 Q 5.753093420236242 1.900733804605306 5.767614791961822 1.900733804605306 Q 5.813785307191872 1.900733804605306 5.813785307191872 1.9599363201019022 L 5.813785307191872 2.1010542658453613 L 5.783253192281678 2.1010542658453613 L 5.783253192281678 1.962170377290453 Q 5.783253192281678 1.943180891187771 5.776551020716026 1.9355478624602225 Q 5.769848849150373 1.927914833732674 5.757933877478102 1.927914833732674 Q 5.74378484861728 1.927914833732674 5.73410393413356 1.9424362054582542 Q 5.72442301964984 1.9569575771838343 5.72442301964984 1.9815322062578933 L 5.72442301964984 2.1010542658453613 L 5.6938909047396455 2.1010542658453613 L 5.6938909047396455 1.962170377290453 Q 5.6938909047396455 1.943180891187771 5.687188733173993 1.9355478624602225 Q 5.680486561608341 1.927914833732674 5.66857158993607 1.927914833732674 Q 5.654422561075248 1.927914833732674 5.644555475159149 1.9424362054582542 Q 5.63468838924305 1.9569575771838343 5.63468838924305 1.9815322062578933 L 5.63468838924305 2.1010542658453613 L 5.604156274332855 2.1010542658453613 L 5.604156274332855 1.9052019189824074 M 5.870561412594197 2.0811339225807832 Q 5.852130440788653 2.0567454649391035 5.852130440788653 2.0031280924138843 Q 5.852130440788653 1.9506277484829404 5.870375241161819 1.925680776544123 Q 5.888620041534983 1.900733804605306 5.92585432801083 1.900733804605306 Q 5.958620500109575 1.900733804605306 5.97444507186181 1.9225158621936762 Q 5.990269643614045 1.9442979197820465 5.990269643614045 1.9927024922006473 L 5.990269643614045 2.0120643211680878 L 5.884151927157881 2.0120643211680878 Q 5.884524270022641 2.0463198647258665 5.894763698803498 2.062330607910481 Q 5.905003127584356 2.0783413510950948 5.926971356605105 2.0783413510950948 Q 5.941865071195444 2.0783413510950948 5.950987471382026 2.0664263794228237 Q 5.960109871568609 2.0545114077505526 5.960109871568609 2.034404893053596 L 5.990269643614045 2.034404893053596 Q 5.990269643614045 2.067171065152341 5.972583357538018 2.0863467226874017 Q 5.954897071461991 2.105522380222463 5.926226670875589 2.105522380222463 Q 5.888992384399741 2.105522380222463 5.870561412594197 2.0811339225807832 M 5.9582481572448165 1.9848832920407196 Q 5.9582481572448165 1.9569575771838343 5.950056614220131 1.9424362054582542 Q 5.941865071195444 1.927914833732674 5.92585432801083 1.927914833732674 Q 5.906120156178631 1.927914833732674 5.8962530702625315 1.9418776911611164 Q 5.886385984346433 1.955840548589559 5.884524270022641 1.9848832920407196 L 5.9582481572448165 1.9848832920407196 M 6.028990938044412 1.9052019189824074 L 6.0520761956594376 1.9052019189824074 L 6.056171967171781 1.927914833732674 L 6.058406024360331 1.927914833732674 Q 6.073672081815428 1.900733804605306 6.105693568184657 1.900733804605306 Q 6.12915116866444 1.900733804605306 6.141624654633849 1.9146966620337484 Q 6.154098140603257 1.928659519462191 6.154098140603257 1.9599363201019022 L 6.154098140603257 2.1010542658453613 L 6.123566025693063 2.1010542658453613 L 6.123566025693063 1.962170377290453 Q 6.123566025693063 1.943180891187771 6.116491511262653 1.9355478624602225 Q 6.109416996832241 1.927914833732674 6.096012653700937 1.927914833732674 Q 6.08074659624584 1.927914833732674 6.070134824600223 1.9424362054582542 Q 6.059523052954607 1.9569575771838343 6.059523052954607 1.9815322062578933 L 6.059523052954607 2.1010542658453613 L 6.028990938044412 2.1010542658453613 L 6.028990938044412 1.9052019189824074 M 6.206968463894447 2.0919318656587786 Q 6.1987769208697605 2.0790860368246116 6.1987769208697605 2.0597242078571716 L 6.1987769208697605 1.9323829481097756 L 6.18202149195563 1.9323829481097756 L 6.18202149195563 1.9052019189824074 L 6.1987769208697605 1.9052019189824074 L 6.2054790924354135 1.8508398607276713 L 6.229309035779955 1.8508398607276713 L 6.229309035779955 1.9052019189824074 L 6.255745379177807 1.9052019189824074 L 6.255745379177807 1.9323829481097756 L 6.229309035779955 1.9323829481097756 L 6.229309035779955 2.0604688935866884 Q 6.229309035779955 2.0783413510950948 6.246809150423603 2.0783413510950948 L 6.255745379177807 2.0783413510950948 L 6.255745379177807 2.099564894386327 Q 6.251649607665463 2.101798951574878 6.245505950396948 2.103288323033912 Q 6.239362293128433 2.1047776944929457 6.2337771501570565 2.1047776944929457 Q 6.215160006919134 2.1047776944929457 6.206968463894447 2.0919318656587786" fill="#000000" fill-rule="nonzero"></path></g></g><defs><clipPath id="SvgjsClipPath5995"><path d=" M -3.2851315151826688 -0.018807520477295947 h 2.885131515182669 v 2.138669306799953 h -2.885131515182669 Z"></path></clipPath><clipPath id="SvgjsClipPath59939b2f7531-e4ee-47bd-b668-cb84a564238d"><path d=" M -3.2851315151826688 -0.018807520477295947 L -0.3999999999999999 -0.018807520477295947 L -0.3999999999999999 2.119861786322657 L -3.2851315151826688 2.119861786322657 Z"></path></clipPath></defs></svg>