<?xml version="1.0" standalone="no"?>
<!DOCTYPE svg PUBLIC "-//W3C//DTD SVG 20010904//EN"
 "http://www.w3.org/TR/2001/REC-SVG-20010904/DTD/svg10.dtd">
<svg version="1.0" xmlns="http://www.w3.org/2000/svg"
 width="1440.000000pt" height="960.000000pt" viewBox="0 0 1440.000000 960.000000"
 preserveAspectRatio="xMidYMid meet">

<g transform="translate(0.000000,960.000000) scale(0.100000,-0.100000)"
fill="#000000" stroke="none">
<path d="M0 4800 l0 -4800 180 0 180 0 1 38 c1 20 2 42 4 47 1 6 3 15 4 20 1
6 6 3 11 -5 7 -11 10 -7 10 17 0 25 -4 31 -15 27 -13 -5 -15 8 -15 85 0 84 2
94 25 116 13 14 30 25 38 25 35 0 47 24 50 102 2 67 -1 79 -18 92 -23 17 -35
12 -35 -13 0 -10 -7 -32 -15 -47 -8 -16 -15 -37 -15 -46 0 -9 -5 -20 -10 -23
-7 -5 -9 14 -5 57 2 35 7 95 10 133 3 39 9 84 14 100 l8 30 11 -26 c8 -20 17
-27 36 -25 26 1 35 11 17 18 -5 2 -6 21 -3 43 4 22 4 65 1 95 -4 43 -6 47 -7
18 -2 -40 -17 -59 -26 -31 -3 10 -3 -3 -1 -30 3 -31 1 -47 -7 -47 -15 0 3 364
23 450 6 25 13 74 15 110 9 144 14 166 40 180 13 7 24 20 24 29 0 11 -3 10
-15 -5 -14 -19 -14 -19 -16 1 -4 46 4 121 13 133 7 8 7 12 0 12 -7 0 -7 12 0
38 5 20 13 57 18 82 4 25 8 35 9 22 0 -13 5 -20 11 -17 5 3 9 32 9 63 -1 31
-4 46 -6 32 -3 -14 -8 -29 -13 -34 -10 -10 0 181 11 209 7 17 8 16 8 -7 1 -26
4 -28 42 -28 l42 0 -6 81 c-6 86 -19 118 -32 78 -8 -23 -8 -23 -16 -4 -13 34
-10 90 7 131 12 29 15 59 11 119 -2 44 -3 70 0 58 5 -28 23 -30 23 -4 0 14 5
18 18 14 28 -7 43 20 45 78 2 46 -2 56 -27 81 -16 16 -30 27 -32 25 -2 -1 -1
-20 3 -40 3 -23 12 -39 24 -42 27 -9 24 -23 -6 -31 -14 -3 -25 -10 -25 -15 0
-5 -4 -9 -10 -9 -5 0 -10 18 -10 40 0 22 3 40 8 40 4 0 6 26 5 57 -2 42 0 53
7 38 8 -17 9 -15 7 11 -1 29 37 121 57 135 4 4 3 16 -4 29 -8 16 -9 49 -4 118
6 71 10 88 14 62 5 -33 6 -34 13 -10 4 14 7 46 7 73 0 26 5 47 10 47 6 0 10
18 10 40 0 38 2 40 30 40 28 0 30 2 30 39 0 22 -6 42 -13 45 -9 5 -9 7 1 12 6
3 12 19 12 35 0 16 5 29 10 29 6 0 10 18 10 39 0 22 3 41 7 43 5 1 16 20 25
41 10 20 24 37 33 37 11 0 15 12 15 50 0 28 -4 50 -10 50 -5 0 -10 9 -10 20 0
11 5 20 10 20 6 0 10 11 10 25 0 14 -4 25 -10 25 -5 0 -10 12 -10 28 -1 26 -1
26 -15 8 -19 -25 -40 -8 -30 23 8 27 45 49 45 26 0 -11 11 -15 40 -15 24 0 40
5 40 12 0 6 7 19 15 29 14 15 14 18 0 32 -19 19 -19 34 -1 53 18 17 43 18 48
2 6 -17 38 14 38 36 0 8 5 18 10 21 18 11 11 35 -10 35 -16 0 -20 7 -20 30 0
28 -2 30 -40 30 -22 0 -40 5 -40 10 0 6 23 10 50 10 l50 0 0 40 0 40 50 0 50
0 0 40 c0 22 5 40 10 40 6 0 10 16 10 36 0 58 26 74 111 67 66 -6 69 -5 69 16
0 18 -6 21 -44 21 -25 0 -48 5 -51 10 -4 6 5 10 19 10 18 0 26 5 26 17 0 15 1
15 18 0 23 -21 32 -21 32 -2 0 8 5 15 10 15 6 0 10 11 10 25 0 21 5 25 30 25
28 0 30 2 30 40 0 22 -4 40 -10 40 -5 0 -10 18 -10 40 0 22 5 40 10 40 6 0 10
35 10 85 l0 85 40 0 c36 0 40 2 40 26 0 21 -4 24 -20 20 -11 -3 -29 -9 -40
-12 -11 -3 -20 -1 -20 4 0 5 17 13 38 18 22 4 30 9 20 11 -14 3 -18 15 -18 44
0 35 3 39 24 39 16 0 35 13 56 40 17 22 27 40 21 40 -6 0 -15 9 -21 21 -9 16
-8 26 4 44 9 14 16 46 16 73 0 58 12 72 62 72 37 0 38 -1 38 -35 0 -34 1 -35
40 -35 38 0 54 13 28 23 -10 4 -10 6 0 6 6 1 12 9 12 19 0 13 -13 23 -40 32
-34 11 -40 17 -40 41 0 39 10 59 29 59 12 0 11 4 -7 18 l-23 18 26 12 c36 17
53 15 57 -5 3 -15 7 -14 29 10 15 15 31 27 38 27 17 0 13 41 -6 62 -15 17 -15
18 0 18 10 0 17 -7 17 -15 0 -8 4 -15 9 -15 13 0 21 27 21 71 0 21 5 39 10 39
6 0 10 -17 10 -38 0 -34 4 -41 35 -58 19 -10 35 -22 35 -26 0 -15 33 -38 56
-38 22 0 24 4 24 43 0 48 -7 62 -35 71 -11 3 -29 22 -39 41 -11 19 -23 35 -28
35 -13 0 -38 26 -38 39 0 6 -4 11 -10 11 -5 0 -7 7 -3 16 5 13 16 15 60 11 47
-5 53 -3 53 13 0 10 -9 20 -20 23 -11 3 -20 13 -20 22 0 9 9 19 20 22 16 4 20
14 20 43 0 42 25 63 35 29 13 -40 32 -20 39 43 4 44 11 65 26 75 11 8 17 20
13 29 -3 9 4 24 16 35 11 11 21 24 21 29 0 6 5 10 10 10 17 0 11 -40 -7 -47
-27 -10 -33 -25 -16 -41 13 -13 16 -13 24 -1 7 11 13 9 29 -11 16 -21 18 -35
13 -82 -4 -42 -3 -58 6 -58 9 0 11 -21 8 -75 -2 -42 -7 -78 -11 -82 -3 -3 -6
1 -6 11 0 11 -6 16 -17 14 -21 -4 -30 -28 -10 -28 20 0 32 -71 18 -99 -7 -12
-9 -42 -5 -75 5 -43 3 -58 -10 -71 -9 -9 -16 -12 -16 -6 0 6 -4 11 -10 11 -6
0 -10 -33 -10 -80 0 -44 4 -80 9 -80 17 0 23 -39 11 -73 -9 -23 -10 -53 -3
-102 10 -85 8 -101 -18 -108 -10 -3 -19 -12 -19 -21 0 -11 -9 -16 -30 -16 -28
0 -30 -2 -30 -40 0 -39 1 -40 35 -40 29 0 35 -4 35 -20 0 -11 -7 -23 -15 -26
-8 -4 -15 -19 -15 -34 0 -36 -17 -48 -23 -18 -2 13 -5 -7 -6 -43 0 -36 -6
-101 -11 -145 -8 -63 -7 -101 5 -184 18 -118 19 -228 3 -312 -8 -44 -8 -65 2
-88 19 -45 17 -256 -2 -378 -9 -57 -14 -110 -12 -117 3 -7 0 -39 -6 -72 -7
-32 -14 -76 -16 -98 -2 -22 -9 -60 -14 -85 -6 -25 -10 -83 -9 -130 1 -47 -4
-128 -11 -180 -6 -52 -15 -124 -20 -160 -4 -36 -13 -119 -19 -185 -7 -66 -16
-122 -22 -123 -5 -2 -9 -39 -9 -82 0 -43 -4 -112 -10 -152 -9 -66 -23 -262
-36 -488 -3 -47 -11 -119 -18 -160 -8 -41 -17 -138 -21 -215 -4 -77 -11 -145
-16 -152 -9 -10 -22 -125 -34 -303 -5 -64 -9 -88 -39 -245 -9 -44 -16 -101
-16 -125 -1 -47 -25 -86 -69 -110 -37 -19 -153 -120 -200 -174 -14 -16 -36
-39 -49 -52 -12 -13 -22 -27 -22 -33 0 -20 -170 -182 -188 -179 -9 2 -45 -11
-80 -29 -75 -39 -76 -39 -62 -13 8 14 8 20 0 20 -6 0 -13 -6 -16 -13 -2 -7
-22 -12 -49 -12 -25 0 -45 -4 -45 -9 0 -5 -8 -15 -18 -22 -24 -19 6448 -21
6477 -2 15 9 42 9 123 0 78 -9 925 -12 3481 -12 l3377 0 0 4800 0 4800 -7200
0 -7200 0 0 -4800z m8688 1976 c26 -24 32 -37 32 -68 0 -22 -3 -38 -7 -36 -5
2 -30 15 -58 27 -27 13 -52 27 -55 32 -3 4 -11 5 -17 1 -8 -5 -6 -18 7 -44 10
-21 14 -40 10 -43 -5 -3 -12 0 -15 6 -4 5 -13 8 -20 5 -19 -7 -85 13 -85 25 0
6 5 7 11 3 8 -5 8 -1 0 14 -6 11 -11 39 -11 61 0 39 1 40 38 43 102 9 136 4
170 -26z m407 -527 c100 -13 164 -33 80 -25 -144 14 -244 29 -239 38 3 5 20 6
37 4 18 -3 73 -11 122 -17z m-1268 -185 c-9 -9 -28 6 -21 18 4 6 10 6 17 -1 6
-6 8 -13 4 -17z m303 -5 c0 -6 -4 -7 -10 -4 -5 3 -10 11 -10 16 0 6 5 7 10 4
6 -3 10 -11 10 -16z m-6183 -135 c-3 -3 -12 -4 -19 -1 -8 3 -5 6 6 6 11 1 17
-2 13 -5z m6105 -31 c18 -21 30 -49 35 -83 2 -13 7 -27 11 -30 12 -9 15 -32
15 -107 0 -46 3 -70 10 -66 6 3 7 2 4 -4 -3 -5 1 -38 9 -74 17 -73 19 -81 40
-206 14 -84 14 -95 -1 -126 -31 -65 -144 -91 -180 -41 -7 11 -25 33 -39 49
-31 36 -38 117 -20 226 4 24 1 47 -9 65 -13 25 -13 35 -2 67 7 21 16 92 20
159 7 111 10 125 34 155 29 37 51 41 73 16z m-6065 -293 c9 0 14 -2 11 -5 -3
-4 -18 -3 -32 1 -23 5 -25 9 -14 22 12 14 13 13 16 -1 2 -10 11 -17 19 -17z
m-207 -65 c10 -12 10 -15 -4 -15 -9 0 -16 7 -16 15 0 8 2 15 4 15 2 0 9 -7 16
-15z m4788 -69 c15 -8 38 -19 52 -25 14 -6 17 -9 7 -6 -10 3 -31 5 -45 5 -16
0 -32 8 -40 20 -14 24 -9 25 26 6z m197 -66 c14 -7 8 -8 -20 -3 -22 3 -42 7
-44 9 -9 8 45 2 64 -6z m52 -16 c-3 -3 -12 -4 -19 -1 -8 3 -5 6 6 6 11 1 17
-2 13 -5z m1629 -16 c62 -48 463 -87 674 -65 52 6 51 5 -15 -9 -55 -12 -121
-14 -305 -11 -228 4 -237 5 -305 32 -38 15 -81 38 -95 52 l-25 24 30 -7 c17
-4 35 -11 41 -16z m-1476 2 c48 -6 50 -7 15 -8 -22 0 -62 3 -90 8 -40 6 -43 7
-15 8 19 0 60 -3 90 -8z m2810 -180 c0 -23 -45 -70 -66 -70 -20 0 -17 29 4 37
9 4 26 17 37 30 25 28 25 28 25 3z m-8260 0 c0 -5 -7 -7 -15 -4 -8 4 -15 8
-15 10 0 2 7 4 15 4 8 0 15 -4 15 -10z m10890 -26 c0 -17 -6 -24 -19 -24 -26
0 -36 31 -15 47 22 16 34 8 34 -23z m-11133 -186 c-2 -13 -4 -3 -4 22 0 25 2
35 4 23 2 -13 2 -33 0 -45z m8464 -73 c1 -11 0 -56 -1 -99 -2 -85 -9 -101 -56
-112 -16 -4 -32 -12 -36 -18 -5 -8 -8 -7 -8 2 0 6 -4 12 -10 12 -5 0 -9 -5 -7
-11 1 -6 -4 -14 -10 -16 -20 -7 -21 92 -2 112 5 5 9 19 9 31 0 13 6 29 13 36
6 7 12 21 12 31 0 9 2 16 5 15 3 -2 16 7 29 19 29 27 61 26 62 -2z m-5721 -36
c0 -14 -17 -10 -23 5 -4 10 -1 13 9 9 7 -3 14 -9 14 -14z m4524 -55 c10 -9 16
-33 16 -59 0 -35 -4 -45 -20 -50 -26 -8 -60 3 -60 20 0 7 -6 16 -12 18 -10 4
-10 7 0 15 8 5 11 20 8 36 -3 14 -1 24 3 22 4 -3 13 -1 21 5 20 12 26 11 44
-7z m-4544 -4 c0 -6 8 -5 20 2 15 10 22 10 32 0 7 -7 44 -12 98 -12 47 0 92
-5 100 -10 10 -6 11 -10 3 -10 -7 0 -13 -9 -13 -20 0 -17 7 -20 39 -20 22 0
41 -5 43 -12 3 -9 40 -12 133 -11 98 1 132 -2 142 -13 19 -18 43 -18 43 1 0 8
9 15 20 15 14 0 20 -7 20 -24 0 -24 36 -56 62 -56 8 0 20 -9 28 -19 7 -11 17
-18 22 -15 4 3 8 1 8 -5 0 -6 8 -8 18 -4 16 6 16 5 0 -14 -22 -24 -23 -33 -2
-33 12 0 15 -6 10 -24 -4 -17 -1 -26 12 -32 37 -16 -83 -23 -495 -30 l-421 -6
-16 30 c-17 33 -21 123 -10 206 5 34 11 46 24 46 16 0 31 21 44 63 6 18 36 24
36 7z m400 -40 c0 -5 -18 -10 -40 -10 -22 0 -40 5 -40 10 0 6 18 10 40 10 22
0 40 -4 40 -10z m268 -13 c2 -10 -3 -17 -12 -17 -10 0 -16 9 -16 21 0 24 23
21 28 -4z m-195 6 c-7 -2 -19 -2 -25 0 -7 3 -2 5 12 5 14 0 19 -2 13 -5z
m-3283 -23 c19 -12 12 -17 -35 -24 -22 -3 -33 -3 -25 0 8 4 19 13 23 20 9 16
17 17 37 4z m3225 -10 c3 -5 1 -10 -4 -10 -6 0 -11 5 -11 10 0 6 2 10 4 10 3
0 8 -4 11 -10z m-3176 -23 c6 -8 14 -29 17 -46 6 -29 4 -33 -12 -29 -10 2 -24
14 -30 27 -7 13 -18 28 -26 32 -11 7 -10 11 2 19 21 13 36 12 49 -3z m861 -58
c0 -5 -4 -9 -10 -9 -5 0 -10 7 -10 16 0 8 5 12 10 9 6 -3 10 -10 10 -16z
m-920 -19 c0 -5 -4 -10 -10 -10 -5 0 -10 5 -10 10 0 6 5 10 10 10 6 0 10 -4
10 -10z m116 -70 c8 0 14 -3 14 -7 -1 -21 -20 -31 -75 -36 -33 -4 -72 -10 -87
-13 -21 -5 -28 -3 -28 9 0 10 14 18 40 22 34 6 39 10 36 28 -2 12 -1 16 1 10
5 -15 23 -17 23 -3 0 6 9 10 19 10 10 0 22 8 27 18 6 14 8 12 12 -10 2 -16 10
-28 18 -28z m6871 -72 c28 -11 37 -14 61 -16 6 -1 12 -14 12 -28 0 -17 4 -23
13 -18 8 5 9 4 2 -3 -5 -6 -83 -16 -172 -22 -166 -12 -203 -8 -203 23 0 21 21
25 79 13 33 -6 55 -6 59 -1 17 23 79 64 99 64 12 0 34 -5 50 -12z m-6947 -12
c0 -3 -4 -8 -10 -11 -5 -3 -10 -1 -10 4 0 6 5 11 10 11 6 0 10 -2 10 -4z
m6620 -16 c0 -5 -4 -10 -10 -10 -5 0 -10 5 -10 10 0 6 5 10 10 10 6 0 10 -4
10 -10z m-6660 -30 c0 -21 -24 -28 -35 -10 -8 14 3 30 21 30 8 0 14 -9 14 -20z
m-346 -155 c-3 -19 -10 -35 -15 -35 -11 0 -11 25 -3 70 6 26 9 29 16 16 5 -9
6 -32 2 -51z m7290 -114 c3 -5 0 -13 -7 -18 -11 -7 -20 -8 -51 -4 -5 0 -3 8 4
16 14 16 46 20 54 6z m66 -1 c0 -5 -5 -10 -11 -10 -5 0 -7 5 -4 10 3 6 8 10
11 10 2 0 4 -4 4 -10z m-7409 -320 c10 0 2 -44 -12 -70 -5 -9 -8 15 -7 60 1
41 3 60 5 43 2 -18 9 -33 14 -33z m16 -122 c-3 -8 -6 -5 -6 6 -1 11 2 17 5 13
3 -3 4 -12 1 -19z m67 -64 c8 -31 3 -39 -19 -31 -19 8 -20 57 -1 57 8 0 17
-12 20 -26z m2822 -148 c-11 -209 -24 -237 -21 -41 4 204 2 188 16 179 8 -5 9
-45 5 -138z m-2898 26 c2 -7 -3 -12 -12 -12 -9 0 -16 7 -16 16 0 17 22 14 28
-4z m8272 -179 c3 -3 -4 -11 -15 -19 -17 -13 -21 -13 -32 2 -7 9 -10 21 -7 26
5 8 42 2 54 -9z m-8359 -106 c-8 -8 -11 -3 -11 19 1 25 2 27 11 11 8 -14 8
-22 0 -30z m0 -74 c-4 -34 -5 -35 -11 -13 -7 26 -3 50 9 50 4 0 5 -17 2 -37z
m-35 -211 c-12 -11 -17 7 -9 34 l8 29 3 -28 c2 -16 1 -31 -2 -35z m-316 -2926
c0 -3 -4 -8 -10 -11 -5 -3 -10 -1 -10 4 0 6 5 11 10 11 6 0 10 -2 10 -4z"/>
<path d="M9705 4790 c3 -5 8 -10 11 -10 2 0 4 5 4 10 0 6 -5 10 -11 10 -5 0
-7 -4 -4 -10z"/>
<path d="M2111 6006 c-9 -10 -9 -16 -1 -21 17 -10 37 12 24 25 -8 8 -15 6 -23
-4z"/>
<path d="M2180 5825 c0 -8 5 -15 10 -15 6 0 10 7 10 15 0 8 -4 15 -10 15 -5 0
-10 -7 -10 -15z"/>
<path d="M1850 5530 c0 -5 12 -10 26 -10 14 0 23 4 19 10 -3 6 -15 10 -26 10
-10 0 -19 -4 -19 -10z"/>
<path d="M1710 5370 c0 -5 5 -10 10 -10 6 0 10 5 10 10 0 6 -4 10 -10 10 -5 0
-10 -4 -10 -10z"/>
<path d="M1600 5240 c0 -33 3 -40 20 -40 17 0 20 7 20 40 0 33 -3 40 -20 40
-17 0 -20 -7 -20 -40z"/>
<path d="M2083 5240 c0 -25 2 -35 4 -22 2 12 2 32 0 45 -2 12 -4 2 -4 -23z"/>
<path d="M1380 4496 c0 -9 7 -16 16 -16 9 0 14 5 12 12 -6 18 -28 21 -28 4z"/>
<path d="M1105 4027 c-4 -10 -5 -21 -1 -24 10 -10 18 4 13 24 -4 17 -4 17 -12
0z"/>
<path d="M1020 3930 c0 -5 5 -10 10 -10 6 0 10 5 10 10 0 6 -4 10 -10 10 -5 0
-10 -4 -10 -10z"/>
<path d="M1020 3855 c-10 -12 -10 -15 4 -15 9 0 16 7 16 15 0 8 -2 15 -4 15
-2 0 -9 -7 -16 -15z"/>
<path d="M912 3829 c2 -6 8 -10 13 -10 5 0 11 4 13 10 2 6 -4 11 -13 11 -9 0
-15 -5 -13 -11z"/>
<path d="M940 3720 c0 -11 5 -20 10 -20 6 0 10 9 10 20 0 11 -4 20 -10 20 -5
0 -10 -9 -10 -20z"/>
<path d="M626 2369 c-10 -69 -13 -129 -6 -129 4 0 10 35 13 77 6 81 2 110 -7
52z"/>
<path d="M550 1946 c0 -8 5 -18 10 -21 6 -3 10 -24 10 -46 0 -29 4 -39 15 -39
13 0 15 11 13 58 -3 50 -6 57 -25 60 -15 2 -23 -2 -23 -12z"/>
<path d="M633 1880 c0 -25 2 -35 4 -22 2 12 2 32 0 45 -2 12 -4 2 -4 -23z"/>
<path d="M531 1744 c0 -11 3 -14 6 -6 3 7 2 16 -1 19 -3 4 -6 -2 -5 -13z"/>
<path d="M552 1740 c0 -14 2 -19 5 -12 2 6 2 18 0 25 -3 6 -5 1 -5 -13z"/>
<path d="M532 1700 c0 -14 2 -19 5 -12 2 6 2 18 0 25 -3 6 -5 1 -5 -13z"/>
<path d="M550 1590 c0 -5 5 -10 10 -10 6 0 10 5 10 10 0 6 -4 10 -10 10 -5 0
-10 -4 -10 -10z"/>
<path d="M540 1260 c-12 -7 -12 -12 -3 -21 15 -15 26 -7 21 15 -2 11 -7 13
-18 6z"/>
<path d="M472 1240 c0 -14 2 -19 5 -12 2 6 2 18 0 25 -3 6 -5 1 -5 -13z"/>
<path d="M595 1190 c3 -5 8 -10 11 -10 2 0 4 5 4 10 0 6 -5 10 -11 10 -5 0 -7
-4 -4 -10z"/>
<path d="M461 1107 c-7 -32 -10 -61 -7 -64 3 -4 7 -4 9 -2 24 40 36 73 29 78
-5 3 -11 15 -14 26 -2 12 -9 -4 -17 -38z"/>
<path d="M461 1014 c0 -11 3 -14 6 -6 3 7 2 16 -1 19 -3 4 -6 -2 -5 -13z"/>
<path d="M480 784 c0 -14 3 -14 15 -4 8 7 15 14 15 16 0 2 -7 4 -15 4 -8 0
-15 -7 -15 -16z"/>
<path d="M520 593 c0 -4 5 -15 10 -23 8 -13 10 -13 10 2 0 9 -4 20 -10 23 -5
3 -10 3 -10 -2z"/>
<path d="M531 334 c0 -11 3 -14 6 -6 3 7 2 16 -1 19 -3 4 -6 -2 -5 -13z"/>
<path d="M1365 300 c3 -5 8 -10 11 -10 2 0 4 5 4 10 0 6 -5 10 -11 10 -5 0 -7
-4 -4 -10z"/>
<path d="M1348 268 c-27 -9 -37 -31 -20 -42 8 -5 57 43 50 49 -2 1 -15 -2 -30
-7z"/>
<path d="M561 254 c0 -11 3 -14 6 -6 3 7 2 16 -1 19 -3 4 -6 -2 -5 -13z"/>
<path d="M1302 220 c0 -14 2 -19 5 -12 2 6 2 18 0 25 -3 6 -5 1 -5 -13z"/>
<path d="M1180 151 c0 -11 31 -24 38 -16 3 3 -1 5 -9 6 -8 1 -3 5 11 9 24 8
23 8 -7 9 -18 1 -33 -3 -33 -8z"/>
<path d="M800 69 c0 -5 5 -7 10 -4 6 3 10 8 10 11 0 2 -4 4 -10 4 -5 0 -10 -5
-10 -11z"/>
<path d="M1018 73 c7 -3 16 -2 19 1 4 3 -2 6 -13 5 -11 0 -14 -3 -6 -6z"/>
<path d="M380 36 c0 -9 5 -16 10 -16 6 0 10 4 10 9 0 6 -4 13 -10 16 -5 3 -10
-1 -10 -9z"/>
</g>
</svg>
